<svg id="Icon_search" data-name="Icon search" xmlns="http://www.w3.org/2000/svg" width="56.347" height="47" viewBox="0 0 56.347 47">
  <g id="Icon_search-2" data-name="Icon search" transform="translate(-413.437 -867.6)">
    <path id="Path_12268" data-name="Path 12268" d="M2977.71,2574a7.71,7.71,0,1,0,5.576,13.033l.037-.04A7.708,7.708,0,0,0,2977.71,2574Z" transform="translate(-2527.361 -1686.909)" fill="none"/>
    <path id="Path_12269" data-name="Path 12269" d="M1397.146,3814.74a2.057,2.057,0,0,0-2.056,2.056v2.056a2.056,2.056,0,0,0,2.056,2.056h8.224a2.056,2.056,0,0,0,2.056-2.056V3816.8a2.056,2.056,0,0,0-2.056-2.056Z" transform="translate(-970.44 -2913.477)" fill="#d1eaff"/>
    <path id="Path_12270" data-name="Path 12270" d="M2719.585,2321.055a10.8,10.8,0,1,0-2.131,2.231l8.551,8.551a1.542,1.542,0,1,0,2.181-2.18Zm-3.179-.979-.037.04a8.007,8.007,0,1,1,.037-.04Z" transform="translate(-2260.445 -1419.993)" fill="#67b8ff"/>
    <path id="Path_12271" data-name="Path 12271" d="M468.521,877.3a5.139,5.139,0,0,0-3.266-1.728v-4.889a3.084,3.084,0,0,0-3.084-3.084H446.053a4.113,4.113,0,0,0-3.57,2.071l-1.569,2.747H421.051a3.084,3.084,0,0,0-3.084,3.084v.071a5.14,5.14,0,0,0-4.481,5.81l4,28.784a5.141,5.141,0,0,0,5.092,4.433h38.071a1.028,1.028,0,1,0,0-2.056H422.575a3.084,3.084,0,0,1-3.055-2.659l-4-28.784a3.084,3.084,0,0,1,3.055-3.509h46.067A3.084,3.084,0,0,1,467.7,881.1l-3,21.588a1.028,1.028,0,0,0,2.036.283c.993-7.153,2.249-16.194,3-21.588A5.143,5.143,0,0,0,468.521,877.3Z" fill="#d1eaff"/>
  </g>
</svg>
