<svg xmlns="http://www.w3.org/2000/svg" width="52" height="47.27" viewBox="0 0 52 47.27">
  <g id="icon_error_recherche" data-name="icon error recherche" transform="translate(-124.25 -189.56)">
    <path id="Icon_awesome-file-alt" data-name="Icon awesome-file-alt" d="M159.7,216.39V204.33H147.15a2.221,2.221,0,0,1-2.22-2.22V189.56H126.46a2.2,2.2,0,0,0-2.21,2.2v42.85a2.217,2.217,0,0,0,2.2,2.22h31.04a2.211,2.211,0,0,0,2.21-2.21v-1.8a9.509,9.509,0,0,1,0-16.43Zm-8.86,7.51a1.114,1.114,0,0,1-1.11,1.11H134.22a1.114,1.114,0,0,1-1.11-1.11v-.74a1.105,1.105,0,0,1,1.11-1.1h15.51a1.107,1.107,0,0,1,1.11,1.11Zm0-5.91a1.114,1.114,0,0,1-1.11,1.11H134.22a1.114,1.114,0,0,1-1.11-1.11v-.73a1.114,1.114,0,0,1,1.11-1.11h15.51a1.114,1.114,0,0,1,1.11,1.11Zm0-5.9a1.105,1.105,0,0,1-1.11,1.1H134.22a1.105,1.105,0,0,1-1.11-1.1v-.74a1.107,1.107,0,0,1,1.11-1.11h15.51a1.107,1.107,0,0,1,1.11,1.11Zm8.22-12.84-9.04-9.05a2.242,2.242,0,0,0-1.57-.64h-.57v11.82H159.7v-.57A2.236,2.236,0,0,0,159.06,199.25Z" fill="#d1eaff"/>
    <path id="Path_12197" data-name="Path 12197" d="M175.81,233.66l-4.49-4.34.26-.42a8.278,8.278,0,0,0-7.08-12.58c-.16,0-.33,0-.49.01a8.275,8.275,0,0,0-7.77,8.76,8.295,8.295,0,0,0,8.75,7.77,8.342,8.342,0,0,0,3.8-1.18l.41-.25,4.49,4.34a1.458,1.458,0,0,0,1.06.44,1.492,1.492,0,0,0,1.06-2.55Zm-16.42-5.61-.37-.79c-.05-.1-.1-.2-.14-.3a6.109,6.109,0,0,1,7.98-7.98c.1.05.2.09.3.14l.79.37Zm5.13,2.68a6.209,6.209,0,0,1-2.61-.58l-.79-.38,8.55-8.55.37.79a6.1,6.1,0,0,1-5.52,8.72Z" fill="#d1eaff"/>
  </g>
</svg>
