<svg id="error_icon" data-name="error icon" xmlns="http://www.w3.org/2000/svg" width="84.33" height="55.902" viewBox="0 0 84.33 55.902">
  <path id="Path_12154" data-name="Path 12154" d="M571.975,789.889v8.338h-2.709v-8.338a.231.231,0,0,1,.232-.229h2.248A.232.232,0,0,1,571.975,789.889Z" transform="translate(-565.876 -788.739)" fill="#d1eaff"/>
  <path id="Path_12155" data-name="Path 12155" d="M779.775,789.889v8.338h-2.708v-8.338a.234.234,0,0,1,.232-.229h2.248A.232.232,0,0,1,779.775,789.889Z" transform="translate(-762.652 -788.739)" fill="#d1eaff"/>
  <path id="Path_12156" data-name="Path 12156" d="M725.319,787v3.668a6.978,6.978,0,0,0-3.1.048V787a11.6,11.6,0,0,0-5.762-9.988c-.152-.088-.307-.171-.463-.252l-.054-.028-.172-.089a11.359,11.359,0,0,0-5.076-1.188h-.265A11.548,11.548,0,0,0,698.9,787v26.6a14.658,14.658,0,0,1-14.63,14.653h-.2A14.659,14.659,0,0,1,669.436,813.6v-9.684h3.1V813.6a11.548,11.548,0,0,0,11.526,11.544h.2A11.548,11.548,0,0,0,695.794,813.6V787a14.658,14.658,0,0,1,14.63-14.653h.265a14.588,14.588,0,0,1,11.149,5.2.573.573,0,0,0,.087.084A14.66,14.66,0,0,1,725.319,787Z" transform="translate(-660.731 -772.35)" fill="#d1eaff"/>
  <path id="Path_12157" data-name="Path 12157" d="M525.9,975.384v2.154a.474.474,0,0,1-.473.474H514.389a.639.639,0,0,0,0,1.278h10.884v2.637a9.664,9.664,0,0,1-3.172,7.148,6.38,6.38,0,0,0-2.091,4.722v.084a.553.553,0,0,1-.552.553h-7.63a.553.553,0,0,1-.552-.553V993.8a6.38,6.38,0,0,0-2.091-4.722,9.662,9.662,0,0,1-3.172-7.148v-2.637h2.125a.639.639,0,0,0,0-1.278h-2.279a.474.474,0,0,1-.473-.474v-2.154a.474.474,0,0,1,.473-.474h19.568A.474.474,0,0,1,525.9,975.384Z" transform="translate(-505.385 -964.145)" fill="#d1eaff"/>
  <path id="Path_12158" data-name="Path 12158" d="M1337.63,1166.184l-15.568-25.22a5.6,5.6,0,0,0-9.541,0l-15.567,25.22a5.617,5.617,0,0,0,4.77,8.57h31.135a5.617,5.617,0,0,0,4.77-8.57Zm-20.338.746a1.787,1.787,0,0,1-1.912-1.777,1.921,1.921,0,0,1,3.824,0A1.787,1.787,0,0,1,1317.292,1166.93Zm2.023-15.723-.588,7.557a1.439,1.439,0,0,1-2.87,0l-.588-7.557a2.029,2.029,0,1,1,4.046,0Z" transform="translate(-1254.149 -1118.853)" fill="#d1eaff"/>
</svg>
