<svg xmlns="http://www.w3.org/2000/svg" xmlns:xlink="http://www.w3.org/1999/xlink" width="1164" height="331" viewBox="0 0 1164 331">
  <defs>
    <linearGradient id="linear-gradient" x1="1.164" y1="0.581" x2="-1.949" y2="0.559" gradientUnits="objectBoundingBox">
      <stop offset="0" stop-color="#ededed" stop-opacity="0"/>
      <stop offset="1" stop-color="#ededed"/>
    </linearGradient>
    <linearGradient id="linear-gradient-2" x1="1.152" y1="0.657" x2="-1.46" y2="0" xlink:href="#linear-gradient"/>
    <linearGradient id="linear-gradient-3" x1="1.181" y1="0.673" x2="-1.281" y2="0" xlink:href="#linear-gradient"/>
    <linearGradient id="linear-gradient-4" x1="1.233" y1="0.5" x2="-1.232" y2="0.21" xlink:href="#linear-gradient"/>
    <linearGradient id="linear-gradient-5" x1="1.183" y1="0.642" x2="-1.46" y2="0" xlink:href="#linear-gradient"/>
    <linearGradient id="linear-gradient-6" x1="1.071" y1="0.5" x2="-0.298" y2="0.5" gradientUnits="objectBoundingBox">
      <stop offset="0" stop-color="#ededed" stop-opacity="0"/>
      <stop offset="1" stop-color="#ededed" stop-opacity="0.651"/>
    </linearGradient>
    <linearGradient id="linear-gradient-7" x1="-0.496" y1="1" x2="1.386" y2="0.5" gradientUnits="objectBoundingBox">
      <stop offset="0" stop-color="#ededed" stop-opacity="0"/>
      <stop offset="1" stop-color="#ededed" stop-opacity="0.561"/>
    </linearGradient>
    <linearGradient id="linear-gradient-10" x1="1.071" x2="-0.228" xlink:href="#linear-gradient-6"/>
    <linearGradient id="linear-gradient-11" x1="1.071" x2="-0.161" xlink:href="#linear-gradient-6"/>
    <linearGradient id="linear-gradient-12" x1="0.943" y1="0.5" x2="-0.157" y2="0.793" gradientUnits="objectBoundingBox">
      <stop offset="0" stop-color="#ededed" stop-opacity="0"/>
      <stop offset="1" stop-color="#ededed" stop-opacity="0.49"/>
    </linearGradient>
    <linearGradient id="linear-gradient-13" x1="2.031" y1="0.5" x2="0.01" y2="0.5" gradientUnits="objectBoundingBox">
      <stop offset="0" stop-color="#ededed" stop-opacity="0"/>
      <stop offset="0.368" stop-color="#ededed" stop-opacity="0"/>
      <stop offset="1" stop-color="#ededed" stop-opacity="0.651"/>
    </linearGradient>
    <linearGradient id="linear-gradient-14" x1="1.168" x2="-0.407" y2="1" gradientUnits="objectBoundingBox">
      <stop offset="0" stop-color="#ededed" stop-opacity="0"/>
      <stop offset="1" stop-color="#ededed" stop-opacity="0.522"/>
    </linearGradient>
  </defs>
  <g id="Group_5274" data-name="Group 5274" transform="translate(-26 -462)">
    <rect id="Rectangle_17712" data-name="Rectangle 17712" width="92" height="30" rx="4" transform="translate(169 462)" fill="url(#linear-gradient)"/>
    <rect id="Rectangle_17713" data-name="Rectangle 17713" width="184" height="30" rx="4" transform="translate(263 462)" fill="url(#linear-gradient-2)"/>
    <g id="Group_5205" data-name="Group 5205">
      <rect id="Rectangle_17717" data-name="Rectangle 17717" width="215" height="30" rx="4" transform="translate(449 462)" fill="url(#linear-gradient-3)"/>
    </g>
    <g id="Group_5206" data-name="Group 5206" transform="translate(217)">
      <rect id="Rectangle_17717-2" data-name="Rectangle 17717" width="246" height="30" rx="4" transform="translate(449 462)" fill="url(#linear-gradient-4)"/>
    </g>
    <g id="Group_5207" data-name="Group 5207" transform="translate(465)">
      <rect id="Rectangle_17717-3" data-name="Rectangle 17717" width="214" height="30" rx="4" transform="translate(449 462)" fill="url(#linear-gradient-5)"/>
    </g>
    <g id="_1_row" data-name="1 row" transform="translate(-10 32)">
      <rect id="Rectangle_17695" data-name="Rectangle 17695" width="1021" height="25" rx="2" transform="translate(179 550)" fill="url(#linear-gradient-6)"/>
    </g>
    <g id="_1_row-2" data-name="1 row" transform="translate(-10 63)">
      <rect id="Rectangle_17695-2" data-name="Rectangle 17695" width="1021" height="25" rx="2" transform="translate(179 550)" fill="url(#linear-gradient-7)"/>
    </g>
    <g id="_1_row-3" data-name="1 row" transform="translate(-10 125)">
      <rect id="Rectangle_17695-3" data-name="Rectangle 17695" width="1021" height="25" rx="2" transform="translate(179 550)" fill="url(#linear-gradient-7)"/>
      <rect id="Rectangle_17739" data-name="Rectangle 17739" width="1021" height="25" rx="2" transform="translate(179 612)" fill="url(#linear-gradient-7)"/>
    </g>
    <g id="_1_row-4" data-name="1 row" transform="translate(-10 94)">
      <rect id="Rectangle_17695-4" data-name="Rectangle 17695" width="1021" height="25" rx="2" transform="translate(179 550)" fill="url(#linear-gradient-10)"/>
    </g>
    <g id="_1_row-5" data-name="1 row" transform="translate(-10 218)">
      <rect id="Rectangle_17695-5" data-name="Rectangle 17695" width="1021" height="25" rx="2" transform="translate(179 550)" fill="url(#linear-gradient-11)"/>
    </g>
    <rect id="Rectangle_17718" data-name="Rectangle 17718" width="1164" height="25" rx="2" transform="translate(26 520)" fill="url(#linear-gradient-12)"/>
    <path id="Path_12208" data-name="Path 12208" d="M2,0H1162a2,2,0,0,1,2,2V23a2,2,0,0,1-2,2H2a2,2,0,0,1-2-2V2A2,2,0,0,1,2,0Z" transform="translate(26 706)" opacity="0.65" fill="url(#linear-gradient-13)"/>
    <rect id="Rectangle_17719" data-name="Rectangle 17719" width="1164" height="25" rx="2" transform="translate(26 551)" fill="url(#linear-gradient-14)"/>
  </g>
</svg>
