<svg xmlns="http://www.w3.org/2000/svg" xmlns:xlink="http://www.w3.org/1999/xlink" width="1096" height="1025.229" viewBox="0 0 1096 1025.229">
  <defs>
    <linearGradient id="linear-gradient" x1="1.1" y1="0.5" x2="-0.147" y2="0.285" gradientUnits="objectBoundingBox">
      <stop offset="0" stop-color="#ededed" stop-opacity="0.263"/>
      <stop offset="1" stop-color="#ededed"/>
    </linearGradient>
    <linearGradient id="linear-gradient-2" x1="1.259" y1="0.671" x2="-0.136" y2="0.255" gradientUnits="objectBoundingBox">
      <stop offset="0" stop-color="#fff"/>
      <stop offset="1" stop-color="#f7f7f7"/>
    </linearGradient>
    <linearGradient id="linear-gradient-3" x1="1.052" y1="0.5" x2="0.1" y2="0.257" xlink:href="#linear-gradient-2"/>
    <linearGradient id="linear-gradient-4" x1="-0.08" y1="0.43" x2="1.108" y2="0.553" gradientUnits="objectBoundingBox">
      <stop offset="0" stop-color="#f7f7f7"/>
      <stop offset="1" stop-color="#fff"/>
    </linearGradient>
  </defs>
  <g id="Group_5273" data-name="Group 5273" transform="translate(-232 -134)">
    <path id="Rectangle_17742" data-name="Rectangle 17742" d="M8,0H1088a8,8,0,0,1,8,8V48a0,0,0,0,1,0,0H0a0,0,0,0,1,0,0V8A8,8,0,0,1,8,0Z" transform="translate(232 134)" fill="url(#linear-gradient)"/>
    <g id="selec" transform="translate(248.5 150)">
      <g id="titre" transform="translate(0 0)">
        <line id="Line_17" data-name="Line 17" x2="1064.486" transform="translate(0 32)" fill="none" stroke="#ededed" stroke-width="1"/>
      </g>
    </g>
    <g id="Group_5317" data-name="Group 5317" transform="translate(232 182)">
      <g id="Group_5296" data-name="Group 5296">
        <rect id="Rectangle_156" data-name="Rectangle 156" width="1096" height="56" fill="#fff"/>
        <line id="Line_34" data-name="Line 34" x2="1071.405" transform="translate(12.5 56)" fill="none" stroke="#ededed" stroke-width="1"/>
      </g>
      <g id="Group_5297" data-name="Group 5297" transform="translate(0 228)">
        <rect id="Rectangle_156-2" data-name="Rectangle 156" width="1096" height="260" fill="#fff"/>
        <line id="Line_34-2" data-name="Line 34" x2="1071.405" transform="translate(12.5 259.729)" fill="none" stroke="#ededed" stroke-width="1"/>
      </g>
      <g id="Group_5295" data-name="Group 5295" transform="translate(0 56)">
        <rect id="Rectangle_17743" data-name="Rectangle 17743" width="1096" height="172" fill="url(#linear-gradient-2)"/>
        <line id="Line_68" data-name="Line 68" x2="1071.405" transform="translate(12.5 172)" fill="none" stroke="#ededed" stroke-width="1"/>
      </g>
    </g>
    <g id="Group_5318" data-name="Group 5318" transform="translate(232 671)">
      <g id="Group_5296-2" data-name="Group 5296">
        <rect id="Rectangle_156-3" data-name="Rectangle 156" width="1096" height="56" fill="url(#linear-gradient-3)"/>
        <line id="Line_34-3" data-name="Line 34" x2="1071.405" transform="translate(12.5 56)" fill="none" stroke="#ededed" stroke-width="1"/>
      </g>
      <g id="Group_5297-2" data-name="Group 5297" transform="translate(0 228)">
        <rect id="Rectangle_156-4" data-name="Rectangle 156" width="1096" height="260" fill="url(#linear-gradient-4)"/>
        <line id="Line_34-4" data-name="Line 34" x2="1071.405" transform="translate(12.5 259.729)" fill="none" stroke="#ededed" stroke-width="1"/>
      </g>
      <g id="Group_5295-2" data-name="Group 5295" transform="translate(0 56)">
        <rect id="Rectangle_17743-2" data-name="Rectangle 17743" width="1096" height="172" fill="#fff"/>
        <line id="Line_68-2" data-name="Line 68" x2="1071.405" transform="translate(12.5 172)" fill="none" stroke="#ededed" stroke-width="1"/>
      </g>
    </g>
  </g>
</svg>
