<svg id="icon_error_recherche" data-name="icon error recherche" xmlns="http://www.w3.org/2000/svg" width="41.953" height="37.831" viewBox="0 0 41.953 37.831">
  <path id="Union_3" data-name="Union 3" d="M13.5,15.68,10.33,12.62a6.8,6.8,0,1,1,2.29-2.288l3.166,3.059A1.619,1.619,0,0,1,13.5,15.68ZM6.82,11.021a4.195,4.195,0,0,0,3.793-5.994L5.024,10.616A4.192,4.192,0,0,0,6.82,11.021ZM6.006,2.71A4.2,4.2,0,0,0,2.944,8.429q.044.106.094.21l5.6-5.6q-.1-.049-.206-.092a4.2,4.2,0,0,0-2.424-.24Z" transform="translate(25.221 21.018)" fill="#d1eaff"/>
  <path id="Union_3_-_Outline" data-name="Union 3 - Outline" d="M14.363,16.348h0a2.076,2.076,0,0,1-1.475-.609l-2.91-2.812A7.275,7.275,0,1,1,6.091-.737c.144-.009.29-.013.434-.013A7.275,7.275,0,0,1,12.933,9.97l2.908,2.809a2.091,2.091,0,0,1-1.478,3.569Zm-4.245-4.6,3.435,3.319a1.138,1.138,0,0,0,.81.336v0a1.146,1.146,0,0,0,.813-1.955l-3.434-3.318.2-.322A6.331,6.331,0,0,0,6.525.194c-.125,0-.253,0-.378.011A6.33,6.33,0,1,0,9.806,11.938Zm-3.575-.535a4.7,4.7,0,0,1-2-.45l-.605-.287,6.536-6.536.287.6a4.7,4.7,0,0,1,.451,2,4.675,4.675,0,0,1-4.67,4.665ZM5.6,10.149A3.721,3.721,0,0,0,10.146,5.6Zm-2.98-.983-.288-.6c-.037-.077-.072-.155-.1-.234a4.669,4.669,0,0,1,6.1-6.1c.076.032.153.066.229.1l.6.288ZM6.544,2.823a3.724,3.724,0,0,0-3.6,4.684L7.5,2.949A3.708,3.708,0,0,0,6.544,2.823Z" transform="translate(25.5 21.296)" fill="#fff"/>
  <path id="Path_12101" data-name="Path 12101" d="M16.645,37.834A23.207,23.207,0,0,1,1,31.775V30.634a10.229,10.229,0,0,1,5.941-9.592,10.07,10.07,0,0,1,3.836-.916H22.51a10.168,10.168,0,0,1,5.138,1.645,7.587,7.587,0,0,0-.867.743,7.5,7.5,0,0,0,1.863,11.975A23.224,23.224,0,0,1,16.645,37.834Zm-.019-20.166a8.755,8.755,0,0,1-7.3-3.928A8.876,8.876,0,0,1,10.417,2.59a8.741,8.741,0,0,1,11.789-.572A8.853,8.853,0,0,1,19.978,17a8.676,8.676,0,0,1-3.351.668Z" transform="translate(-0.997 -0.003)" fill="#d1eaff"/>
</svg>
