<?xml version="1.0" standalone="no"?>
<!DOCTYPE svg PUBLIC "-//W3C//DTD SVG 1.1//EN" "http://www.w3.org/Graphics/SVG/1.1/DTD/svg11.dtd" >
<svg xmlns="http://www.w3.org/2000/svg">
<metadata>Generated by IcoMoon</metadata>
<defs>
<font id="icomoon" horiz-adv-x="1024">
<font-face units-per-em="1024" ascent="960" descent="-64" />
<missing-glyph horiz-adv-x="1024" />
<glyph unicode="&#x20;" horiz-adv-x="512" d="" />
<glyph unicode="&#xe900;" glyph-name="carreer" horiz-adv-x="1066" d="M1057.301 333.162v-388.55h-834.414v132.854h268.867v119.579h252.853v136.117h312.695zM471.102 881.431c0-38.637 31.319-69.957 69.957-69.957s69.957 31.319 69.957 69.957-31.319 69.957-69.957 69.957-69.957-31.319-69.957-69.957zM790.54 543.032c-6.743-15.593-25.284-21.912-40.877-14.748l-129.798 61.107c-7.584 3.372-13.907 10.115-16.434 18.12l-21.916 61.948-30.341-151.781 102.371-2.106c21.912-0.42 39.191-18.965 38.77-40.877l-5.478-212.289c-0.42-21.912-18.54-39.191-40.036-39.191 0 0-0.42 0-0.845 0-22.337 0.42-39.611 18.965-39.191 40.877l4.637 172.677-127.659 2.951-29.5-146.161c-1.265-5.898-3.792-12.221-7.164-17.279l-109.16-157.017c-13.907-20.226-40.877-24.443-61.107-10.536-19.806 13.907-24.443 40.877-10.115 60.687l103.682 147.747 66.448 376.528-132.196-122.081c-2.314-2.135-4.883-3.825-7.588-5.095l12.371-12.371-36.131-36.131 60.216-60.216-48.174-48.174-192.695 192.699 48.174 48.174 60.216-60.216 36.131 36.131 20.159-20.155c1.536 3.288 3.676 6.356 6.465 9.008l165.588 157.217c21.854 18.807 56.911 30.154 87.256 25.096l28.655-5.478c38.35-6.743 67.846-32.872 80.072-67.005l31.186-85.55 118.418-55.629c15.589-6.748 22.332-25.288 15.589-40.881zM279.306 554.142l-42.155 42.155-21.075-21.075 42.155-42.155 21.075 21.075zM237.152 433.71l-12.042-12.042-24.085 24.089 12.042 12.042-72.263 72.263-12.042-12.042-24.089 24.089 12.042 12.042-36.131 36.131-72.259-72.267 192.699-192.699 72.263 72.263-36.136 36.131z" />
<glyph unicode="&#xe901;" glyph-name="user-info" d="M512 960c-91.232 0-165.44-74.208-165.44-165.44s74.208-165.472 165.44-165.472c91.232 0 165.44 74.208 165.44 165.44s-74.208 165.472-165.44 165.472zM512 661.088c-73.568 0-133.44 59.872-133.44 133.44s59.872 133.472 133.44 133.472c73.6 0 133.44-59.872 133.44-133.44s-59.84-133.472-133.44-133.472zM673.44 584.32l-12.704 3.84-148.736-112.128-148.704 112.128-12.704-3.84c-205.952-61.728-205.76-271.872-205.76-273.984l0.32-25.92h733.728l0.32 25.92c0 2.112 0.192 212.256-205.76 273.984zM177.024 316.416c1.6 33.024 17.952 186.144 180 236.416l154.976-116.864 154.976 116.864c162.496-50.368 178.464-204.256 180.032-236.416h-669.984zM39.936 125.44h944.128v-32h-944.128v32zM39.936-32h944.128v-32h-944.128v32z" />
<glyph unicode="&#xe902;" glyph-name="document" d="M911.705 738.065c-0.036 0.371-0.1 0.731-0.162 1.092-0.022 0.12-0.032 0.244-0.056 0.365-0.086 0.431-0.196 0.852-0.319 1.266-0.014 0.050-0.024 0.104-0.040 0.154-0.13 0.427-0.283 0.844-0.449 1.252-0.016 0.042-0.030 0.086-0.046 0.128-0.162 0.391-0.347 0.77-0.539 1.142-0.032 0.062-0.058 0.126-0.090 0.188-0.186 0.347-0.393 0.679-0.603 1.010-0.054 0.084-0.098 0.172-0.154 0.254-0.206 0.309-0.433 0.601-0.661 0.894-0.074 0.096-0.14 0.196-0.218 0.291-0.285 0.347-0.589 0.677-0.904 0.998-0.030 0.030-0.054 0.062-0.084 0.092l-208.407 208.407c-0.036 0.036-0.076 0.066-0.114 0.102-0.313 0.307-0.635 0.603-0.974 0.882-0.11 0.090-0.226 0.166-0.339 0.252-0.277 0.214-0.551 0.429-0.842 0.623-0.102 0.068-0.21 0.124-0.313 0.19-0.313 0.198-0.625 0.395-0.952 0.569-0.072 0.038-0.148 0.070-0.222 0.106-0.363 0.186-0.731 0.367-1.11 0.525-0.048 0.020-0.098 0.034-0.148 0.054-0.405 0.162-0.814 0.315-1.234 0.443-0.054 0.016-0.108 0.026-0.162 0.042-0.413 0.12-0.832 0.23-1.258 0.317-0.126 0.026-0.257 0.036-0.385 0.058-0.355 0.062-0.709 0.124-1.074 0.16-0.495 0.050-0.996 0.076-1.499 0.076h-496.971c-43.645 0-79.155-35.509-79.155-79.155v-865.691c0-43.645 35.509-79.155 79.155-79.155h641.252c43.645 0 79.155 35.509 79.155 79.155v721.409c0 0.503-0.026 1.004-0.076 1.501zM703.374 908.688l157.095-157.095h-107.999c-27.071 0-49.096 22.023-49.096 49.096v107.999zM832.626-33.941h-641.252c-27.071 0-49.096 22.023-49.096 49.096v865.691c0 27.073 22.025 49.096 49.096 49.096h481.941v-129.252c0-43.645 35.509-79.155 79.155-79.155h129.252v-706.38c0-27.073-22.025-49.096-49.096-49.096zM784.532 463.029h-96.192c-8.3 0-15.029-6.727-15.029-15.029s6.729-15.029 15.029-15.029h96.192c8.3 0 15.029 6.727 15.029 15.029s-6.729 15.029-15.029 15.029zM239.468 432.971h384.753c8.3 0 15.029 6.727 15.029 15.029s-6.729 15.029-15.029 15.029h-384.753c-8.3 0-15.029-6.727-15.029-15.029s6.729-15.029 15.029-15.029zM784.532 655.405h-400.783c-8.3 0-15.029-6.727-15.029-15.029s6.729-15.029 15.029-15.029h400.783c8.3 0 15.029 6.727 15.029 15.029s-6.729 15.029-15.029 15.029zM239.468 625.346h80.163c8.3 0 15.029 6.727 15.029 15.029s-6.729 15.029-15.029 15.029h-80.163c-8.3 0-15.029-6.727-15.029-15.029s6.729-15.029 15.029-15.029zM784.532 270.654h-304.595c-8.3 0-15.029-6.727-15.029-15.029s6.729-15.029 15.029-15.029h304.595c8.3 0 15.029 6.727 15.029 15.029s-6.729 15.029-15.029 15.029zM415.812 270.654h-176.344c-8.3 0-15.029-6.727-15.029-15.029s6.729-15.029 15.029-15.029h176.344c8.3 0 15.029 6.727 15.029 15.029s-6.729 15.029-15.029 15.029zM784.532 559.217h-545.065c-8.3 0-15.029-6.727-15.029-15.029s6.729-15.029 15.029-15.029h545.065c8.3 0 15.029 6.727 15.029 15.029s-6.729 15.029-15.029 15.029zM784.532 366.841h-545.065c-8.3 0-15.029-6.727-15.029-15.029s6.729-15.029 15.029-15.029h545.065c8.3 0 15.029 6.727 15.029 15.029s-6.729 15.029-15.029 15.029z" />
<glyph unicode="&#xe903;" glyph-name="edit" d="M796.118 901.733c-3.48 2.434-7.77 3.384-11.95 2.619-4.165-0.747-7.862-3.118-10.278-6.597l-368.261-529.010c-1.421-2.027-2.341-4.366-2.699-6.832l-24.288-166.909c-0.874-5.974 1.717-11.949 6.677-15.397 2.73-1.902 5.928-2.87 9.125-2.87 2.621 0 5.258 0.64 7.645 1.95l148.096 80.709c2.184 1.186 4.056 2.854 5.459 4.899l368.245 529.008c5.040 7.238 3.261 17.19-3.978 22.229l-123.792 86.2zM531.59 285.636l-116.744-63.613 19.157 131.562 356.966 512.8 97.587-67.933-356.966-512.816zM899.477 582c-8.83 0-15.974-7.144-15.974-15.974v-535.933c0-34.272-27.875-62.147-62.146-62.147h-674.374c-34.272 0-62.147 27.875-62.147 62.147v674.374c0 34.27 27.875 62.147 62.147 62.147h397.493c8.829 0 15.973 7.144 15.973 15.973s-7.144 15.973-15.973 15.973h-397.493c-51.883 0-94.094-42.211-94.094-94.093v-674.374c0-51.882 42.211-94.093 94.094-94.093h674.374c51.882 0 94.093 42.211 94.093 94.093v535.933c0 8.83-7.144 15.974-15.973 15.974zM963.994 871.892l-128.13 85.421c-7.363 4.896-17.269 2.917-22.15-4.432-4.899-7.346-2.917-17.251 4.429-22.15l128.131-85.419c2.73-1.81 5.802-2.683 8.845-2.683 5.162 0 10.232 2.496 13.306 7.114 4.898 7.347 2.917 17.253-4.43 22.15z" />
<glyph unicode="&#xe904;" glyph-name="phone" d="M1013.028 183.429c-38.119 72.061-170.489 150.196-176.317 153.613-17.009 9.682-34.759 14.807-51.369 14.807-24.697 0-44.915-11.314-57.159-31.892-19.363-23.16-43.377-50.23-49.205-54.425-45.104-30.601-80.413-27.127-119.481 11.941l-218.043 218.062c-38.821 38.821-42.39 74.567-11.997 119.424 4.252 5.866 31.323 29.899 54.482 49.281 14.769 8.789 24.906 21.85 29.348 37.872 5.904 21.318 1.557 46.395-12.377 70.827-3.284 5.619-81.458 138.009-153.48 176.109-13.44 7.119-28.589 10.877-43.776 10.877-25.020 0-48.559-9.757-66.252-27.431l-48.18-48.161c-76.199-76.18-103.782-162.535-82.027-256.655 18.148-78.439 71.036-161.909 157.22-248.074l279.15-279.15c109.078-109.078 213.069-164.396 309.087-164.396 0 0 0 0 0.019 0 70.618 0 136.452 30.013 195.623 89.184l48.161 48.161c29.272 29.253 35.917 73.485 16.572 110.028z" />
<glyph unicode="&#xe905;" glyph-name="email" d="M898.921 631.178h-773.841c-68.966 0-125.079-56.114-125.079-125.079v-445.020c0-68.966 56.114-125.079 125.079-125.079h773.841c68.966 0 125.079 56.114 125.079 125.079v445.006c0.014 68.979-56.1 125.093-125.079 125.093zM837.802 549.578l-325.802-209.903-325.802 209.903h651.604zM898.921 17.586h-773.841c-23.977 0-43.479 19.516-43.479 43.479v442.708l405.226-260.576c0.544-0.34 1.129-0.571 1.686-0.884 0.585-0.326 1.183-0.639 1.782-0.938 3.142-1.618 6.378-2.924 9.683-3.781 0.34-0.095 0.68-0.136 1.020-0.218 3.631-0.857 7.303-1.387 10.975-1.387 0.014 0 0.027 0 0.027 0 0.027 0 0.041 0 0.054 0 3.672 0 7.344 0.517 10.975 1.387 0.34 0.082 0.68 0.122 1.020 0.218 3.305 0.857 6.528 2.162 9.683 3.781 0.598 0.299 1.197 0.612 1.782 0.938 0.558 0.313 1.142 0.544 1.686 0.884l405.226 260.576v-442.694c-0.014-23.977-19.53-43.493-43.506-43.493z" />
<glyph unicode="&#xe906;" glyph-name="username" d="M968.798 639.215h-274.622v66.808c0 100.628-81.573 182.192-182.207 182.192-100.591 0-182.163-81.566-182.163-182.192v-66.808h-274.6c-30.469 0-55.206-24.735-55.206-55.202v-521.027c0-30.465 24.737-55.202 55.206-55.202h913.592c30.469 0 55.202 24.737 55.202 55.202v521.027c0 30.467-24.733 55.202-55.202 55.202zM893.139 391.745c0-14.128-11.471-25.595-25.604-25.595h-265.566c-14.137 0-25.598 11.465-25.598 25.595 0 14.133 11.459 25.608 25.598 25.608h265.566c14.133 0 25.604-11.473 25.604-25.608zM759.472 553.881c14.126 0 25.598-11.465 25.598-25.595s-11.469-25.604-25.598-25.604h-157.501c-14.137 0-25.598 11.471-25.598 25.604 0 14.128 11.459 25.595 25.598 25.595h157.501zM511.967 808.649c40.234 0 72.833-32.6 72.833-72.833 0-40.203-32.6-72.8-72.833-72.8-40.199 0-72.8 32.6-72.8 72.8 0 40.236 32.604 72.833 72.8 72.833zM496.899 158.244c0-39.825-32.432-72.257-72.253-72.257h-274.904c-39.838 0-72.27 32.432-72.27 72.257v330.512c0 39.823 32.432 72.255 72.27 72.255h274.902c39.821 0 72.253-32.432 72.253-72.255v-330.512zM930.138 93.082h-157.492c-14.145 0-25.606 11.465-25.606 25.6 0 14.133 11.459 25.604 25.606 25.604h157.492c14.128 0 25.598-11.469 25.598-25.604-0.002-14.133-11.471-25.6-25.598-25.6zM930.138 229.616h-328.168c-14.137 0-25.598 11.473-25.598 25.604 0 14.128 11.459 25.595 25.598 25.595h328.166c14.128 0 25.598-11.465 25.598-25.595s-11.469-25.604-25.595-25.604zM424.644 526.882h-274.902c-21.033 0-38.138-17.105-38.138-38.126v-330.512c0-21.037 17.105-38.126 38.138-38.126h274.902c21.021 0 38.122 17.089 38.122 38.126v330.512c0 21.021-17.101 38.126-38.122 38.126zM287.173 496.080c48.623 0 88.127-51.933 88.127-115.969 0-64.024-39.504-116.027-88.127-116.027-48.633 0-88.141 52.003-88.141 116.027 0.002 64.038 39.508 115.969 88.141 115.969zM414.9 159.179c-2.699-3.223-6.627-5.056-10.802-5.056h-233.825c-4.171 0-8.138 1.857-10.8 5.056-2.709 3.198-3.795 7.441-3.066 11.537 5.858 32.902 23.655 60.937 48.467 80.432 0.657 0.493 1.233 1.202 1.961 1.801 22.298-20.695 50.101-33.203 80.339-33.203 30.193 0 57.996 12.505 80.397 33.203 0.601-0.599 1.233-1.308 1.963-1.801 24.702-19.493 42.466-47.53 48.399-80.432 0.738-4.129-0.363-8.339-3.035-11.537z" />
<glyph unicode="&#xe907;" glyph-name="manager" d="M512.034 555.861c111.423 0 202.069 90.646 202.069 202.069s-90.646 202.069-202.069 202.069c-111.423 0-202.069-90.646-202.069-202.069s90.646-202.069 202.069-202.069zM783.184 457.937c-0.086 0.028-0.252 0.090-0.338 0.11-26.31 6.427-106.879 17.698-106.879 17.698-9.095 2.8-18.815-2.017-22.087-10.992l-121.273-332.745c-6.996-19.194-34.144-19.194-41.139 0l-121.273 332.745c-2.641 7.247-9.481 11.792-16.812 11.792-1.738 0-84.578-11.616-112.157-18.473-75.362-18.739-122.897-92.846-122.897-170.077v-276.866c0-41.491 33.637-75.128 75.128-75.128h637.093c41.491 0 75.128 33.637 75.128 75.128v277.787c-0.003 76.897-49.4 145.139-122.494 169.022zM557.77 482.089c-4.841 5.275-11.916 7.927-19.073 7.927h-53.389c-7.158 0-14.236-2.655-19.073-7.927-7.492-8.164-8.582-19.959-3.262-29.175l28.541-43.025-13.36-112.709 26.31-69.991c2.565-7.040 12.519-7.040 15.084 0l26.31 69.991-13.36 112.709 28.541 43.025c5.313 9.216 4.224 21.011-3.269 29.175z" />
<glyph unicode="&#xe908;" glyph-name="email-2" d="M874.040 810.040c-96.706 96.701-225.28 149.96-362.040 149.96s-265.334-53.259-362.040-149.96c-96.701-96.706-149.96-225.28-149.96-362.040s53.259-265.334 149.96-362.040c96.706-96.701 225.28-149.96 362.040-149.96 69.106 0 136.162 13.542 199.304 40.248l-24.677 58.336c-55.29-23.387-114.044-35.245-174.627-35.245-247.392 0-448.66 201.268-448.66 448.66s201.268 448.66 448.66 448.66 448.66-201.268 448.66-448.66c0-108.36-66.579-157.715-128.441-157.715-61.86 0-128.439 49.353-128.439 157.715 0 105.749-86.031 191.779-191.779 191.779s-191.779-86.033-191.779-191.779 86.031-191.779 191.779-191.779c62.612 0 118.307 30.163 153.33 76.716 8.969-18.109 20.256-34.491 33.866-48.799 35.076-36.881 82.317-57.19 133.023-57.19 50.708 0 97.949 20.311 133.025 57.19 38.439 40.413 58.756 97.077 58.756 163.863 0 136.76-53.259 265.334-149.96 362.040zM512 319.561c-70.821 0-128.439 57.618-128.439 128.439s57.618 128.439 128.439 128.439 128.439-57.618 128.439-128.439-57.618-128.439-128.439-128.439z" />
<glyph unicode="&#xe909;" glyph-name="go-back" d="M1002.922 88.695c-7.835 0-15.215 4.4-18.835 11.64-1.212 2.342-97.739 181.324-500.557 187.413v-177.996c0-8.020-4.565-15.342-11.753-18.879-7.178-3.538-15.732-2.716-22.126 2.157l-441.375 338.252c-5.202 3.99-8.277 10.161-8.277 16.698 0 6.572 3.075 12.739 8.277 16.739l441.395 338.239c6.404 4.883 14.948 5.709 22.126 2.188 7.188-3.514 11.753-10.866 11.753-18.866v-187.581c10.654 0.678 24.533 1.267 40.913 1.267 150.202 0 499.537-47.779 499.537-490.17 0-9.787-6.726-18.301-16.266-20.523-1.606-0.414-3.188-0.579-4.811-0.579z" />
<glyph unicode="&#xe90a;" glyph-name="close" d="M602.561 447.989l402.675 402.675c25.018 24.996 25.018 65.554 0 90.551-25.018 25.018-65.533 25.018-90.551 0l-402.675-402.675-402.697 402.675c-25.018 25.018-65.533 25.018-90.551 0-25.018-24.996-25.018-65.554 0-90.551l402.697-402.675-402.697-402.675c-25.018-24.996-25.018-65.554 0-90.551 12.509-12.488 28.903-18.742 45.275-18.742s32.766 6.254 45.275 18.763l402.697 402.675 402.675-402.675c12.509-12.509 28.903-18.763 45.275-18.763s32.766 6.254 45.275 18.763c25.018 24.996 25.018 65.554 0 90.551l-402.675 402.654z" />
<glyph unicode="&#xe90b;" glyph-name="file" d="M797.114 960h-570.225c-56.059 0-101.662-45.595-101.662-101.664v-820.673c0-56.067 45.603-101.664 101.664-101.664h570.223c56.046 0 101.662 45.595 101.662 101.664v820.673c-0.002 56.069-45.617 101.664-101.662 101.664zM828.214 37.664c0-17.146-13.968-31.098-31.1-31.098h-570.225c-17.144 0-31.092 13.951-31.092 31.098v820.673c0 17.146 13.945 31.1 31.092 31.1h570.223c17.132 0 31.1-13.953 31.1-31.1v-820.673zM362.067 659.155h229.338c19.469 0 35.262 15.792 35.262 35.285s-15.794 35.287-35.262 35.287h-229.338c-19.477 0-35.285-15.794-35.285-35.287 0.002-19.491 15.808-35.285 35.285-35.285zM661.954 553.321h-299.888c-19.477 0-35.285-15.808-35.285-35.279 0-19.479 15.808-35.287 35.285-35.287h299.888c19.493 0 35.299 15.808 35.299 35.287 0 19.471-15.806 35.279-35.299 35.279zM661.954 376.902h-299.888c-19.477 0-35.285-15.773-35.285-35.264 0-19.493 15.808-35.299 35.285-35.299h299.888c19.493 0 35.299 15.808 35.299 35.299s-15.806 35.264-35.299 35.264zM661.954 200.502h-299.888c-19.477 0-35.285-15.792-35.285-35.287 0-19.493 15.808-35.262 35.285-35.262h299.888c19.493 0 35.299 15.769 35.299 35.262 0 19.497-15.806 35.287-35.299 35.287z" />
<glyph unicode="&#xe90c;" glyph-name="arrow-up" d="M1006.49 239.616l-514.56 514.56-514.56-514.56 128-127.488 386.56 387.072 387.072-387.072z" />
<glyph unicode="&#xe90d;" glyph-name="export-file" d="M832 576c-11.782 0-21.333 9.551-21.333 21.333v64h-149.333c-11.782 0-21.333 9.551-21.333 21.333v149.333h-362.667c-35.346 0-64-28.654-64-64v-640c0-35.346 28.654-64 64-64h469.333c35.346 0 64 28.654 64 64v85.333c0 11.782 9.551 21.333 21.333 21.333s21.333-9.551 21.333-21.333v-85.333c0-58.91-47.756-106.667-106.667-106.667h-469.333c-58.91 0-106.667 47.756-106.667 106.667v640c0 58.91 47.756 106.667 106.667 106.667h382.806c5.664 0.359 11.559-1.529 16.279-6.248l170.667-170.667c4.719-4.719 6.608-10.615 6.248-16.279v-84.14c0-11.782-9.551-21.333-21.333-21.333zM780.497 405.333h-333.089c-11.782 0-21.333 9.551-21.333 21.333s9.551 21.333 21.333 21.333h333.089l-91.582 91.582c-8.331 8.331-8.331 21.839 0 30.17s21.839 8.331 30.17 0l128-128c8.331-8.331 8.331-21.839 0-30.17l-128-128c-8.331-8.331-21.839-8.331-30.17 0s-8.331 21.839 0 30.17l91.582 91.582zM682.667 801.83v-97.83h97.83l-97.83 97.83z" />
<glyph unicode="&#xe90e;" glyph-name="add" d="M574.034 510.034v434.496h-123.759v-434.496h-434.806v-123.759h434.496v-434.496h123.759v434.187h434.496v123.759z" />
<glyph unicode="&#xe90f;" glyph-name="import-file" d="M192 277.333c11.782 0 21.333-9.551 21.333-21.333v-128.043c0-35.346 28.654-64 64-64h469.333c35.346 0 64 28.654 64 64v533.333h-149.333c-11.782 0-21.333 9.551-21.333 21.333v149.333h-362.667c-35.346 0-64-28.654-64-64v-85.291c0-11.782-9.551-21.333-21.333-21.333s-21.333 9.551-21.333 21.333v85.291c0 58.91 47.756 106.667 106.667 106.667h382.806c5.664 0.359 11.559-1.529 16.279-6.248l170.667-170.667c4.719-4.719 6.608-10.615 6.248-16.279v-553.473c0-58.91-47.756-106.667-106.667-106.667h-469.333c-58.91 0-106.667 47.756-106.667 106.667v128.043c0 11.782 9.551 21.333 21.333 21.333zM682.667 801.787v-97.83h97.83l-97.83 97.83zM524.497 490.667l-91.582 91.582c-8.331 8.331-8.331 21.839 0 30.17s21.839 8.331 30.17 0l128-128c8.331-8.331 8.331-21.839 0-30.17l-128-128c-8.331-8.331-21.839-8.331-30.17 0s-8.331 21.839 0 30.17l91.582 91.582h-332.497c-11.782 0-21.333 9.551-21.333 21.333s9.551 21.333 21.333 21.333h332.497z" />
<glyph unicode="&#xe910;" glyph-name="arrow-down" d="M17.51 656.384l514.56-514.56 514.56 514.56-128 127.488-386.56-387.072-387.072 387.072z" />
<glyph unicode="&#xe911;" glyph-name="eye" d="M582.105 456.586c0-42.372-34.349-76.721-76.721-76.721s-76.721 34.349-76.721 76.721c0 42.372 34.349 76.721 76.721 76.721s76.721-34.349 76.721-76.721zM505.383 680.763c-123.81 0-224.177-100.368-224.177-224.177s100.368-224.177 224.177-224.177c123.81 0 224.177 100.368 224.177 224.177v0c-0.134 123.756-100.422 224.043-224.164 224.177h-0.013zM505.383 311.099c-80.35 0-145.487 65.137-145.487 145.487s65.137 145.487 145.487 145.487c80.35 0 145.487-65.137 145.487-145.487v0c-0.090-80.314-65.173-145.397-145.478-145.487h-0.009zM981.307 542.444c-48.705 72.446-106.946 133.971-173.84 184.677l-1.894 1.376c-81.988 66.052-186.703 106.925-300.869 109.557l-0.581 0.011c-114.684-2.753-219.351-43.478-302.445-110.023l0.995 0.77c-69.114-52.043-127.675-113.487-175.048-183.152l-1.71-2.665c-16.218-24.32-25.88-54.217-25.88-86.37s9.662-62.051 26.24-86.946l-0.361 0.576c49.082-72.332 107.645-133.775 174.813-184.412l1.945-1.405c82.099-65.775 186.766-106.5 300.843-109.241l0.607-0.012c142.907 6.614 270.484 67.256 363.776 161.811l0.059 0.060c8.698 7.275 14.191 18.132 14.191 30.272 0 21.752-17.633 39.385-39.385 39.385-11.257 0-21.411-4.723-28.589-12.295l-0.017-0.018c-79.435-81.275-188.015-133.768-308.809-140.548l-1.227-0.055c-190.937 0-349.263 163.21-412.672 259.938-8.137 12.198-12.984 27.195-12.984 43.323s4.847 31.125 13.165 43.612l-0.181-0.289c63.409 96.414 221.735 259.938 412.672 259.938s348.239-163.367 411.097-259.938c7.978-12.112 12.726-26.966 12.726-42.929s-4.748-30.817-12.91-43.226l0.184 0.297c-4.671-6.394-7.474-14.412-7.474-23.084 0-21.752 17.633-39.385 39.385-39.385 14.439 0 27.063 7.77 33.919 19.356l0.1 0.183c15.831 24.156 25.251 53.752 25.251 85.547 0 31.694-9.359 61.201-25.464 85.91l0.371-0.607z" />
<glyph unicode="&#xe912;" glyph-name="user-profil" horiz-adv-x="731" d="M731.432-64h-73.135v182.865c-0.123 100.944-81.921 182.742-182.853 182.865h-219.444c-100.944-0.123-182.742-81.921-182.865-182.853v-182.877h-73.135v182.865c0.169 141.317 114.683 255.831 255.983 256h219.449c141.317-0.169 255.831-114.683 256-255.983v-0.017zM365.703 886.865c100.993 0 182.865-81.871 182.865-182.865s-81.871-182.865-182.865-182.865c-100.993 0-182.865 81.871-182.865 182.865v0c0 100.993 81.871 182.865 182.865 182.865v0zM365.703 960c-141.385 0-256-114.615-256-256s114.615-256 256-256c141.385 0 256 114.615 256 256v0c0 141.385-114.615 256-256 256v0z" />
<glyph unicode="&#xe913;" glyph-name="user-profil-2" d="M841.162 667.432l58.26-109.703 124.605-15.144-91.432-82.405 18.297-121.883-109.73 68.554-109.703-68.554 18.297 121.91-91.459 82.405 128.027 15.117 54.865 109.703zM731.432-64h-73.135v182.865c-0.123 100.944-81.921 182.742-182.853 182.865h-219.444c-100.944-0.123-182.742-81.921-182.865-182.853v-182.877h-73.135v182.865c0.169 141.317 114.683 255.831 255.983 256h219.449c141.317-0.169 255.831-114.683 256-255.983v-0.017zM365.703 886.865c100.993 0 182.865-81.871 182.865-182.865s-81.871-182.865-182.865-182.865c-100.993 0-182.865 81.871-182.865 182.865v0c0 100.993 81.871 182.865 182.865 182.865v0zM365.703 960c-141.385 0-256-114.615-256-256s114.615-256 256-256c141.385 0 256 114.615 256 256v0c0 141.385-114.615 256-256 256v0z" />
<glyph unicode="&#xe914;" glyph-name="user-profil-3" horiz-adv-x="1341" d="M0-64h73.135v182.865c0.123 100.944 81.921 182.742 182.853 182.865h0.012v73.135c-141.317-0.169-255.831-114.683-256-255.983v-0.017zM292.568-64h73.135v182.865c0.123 100.944 81.921 182.742 182.853 182.865h219.444c100.944-0.123 182.742-81.921 182.865-182.853v-182.877h73.135v182.865c-0.169 141.317-114.683 255.831-255.983 256h-219.449c-141.317-0.169-255.831-114.683-256-255.983v-0.017zM365.703 960v-73.135c-0.66 0.009-1.439 0.013-2.22 0.013-100.993 0-182.865-81.871-182.865-182.865s81.871-182.865 182.865-182.865c0.781 0 1.56 0.005 2.338 0.015l-0.118-0.001v-73.162c-141.385 0-256 114.615-256 256s114.615 256 256 256v0zM658.297 886.865c-100.993 0-182.865-81.871-182.865-182.865s81.871-182.865 182.865-182.865c100.993 0 182.865 81.871 182.865 182.865v0c0 100.993-81.871 182.865-182.865 182.865v0zM658.297 960c141.385 0 256-114.615 256-256s-114.615-256-256-256c-141.385 0-256 114.615-256 256v0c0 141.385 114.615 256 256 256v0zM1158.117 667.432l-58.26-109.703-124.605-15.144 91.432-82.405-18.297-121.883 109.703 68.554 109.703-68.554-18.297 121.91 91.432 82.405-128.027 15.117-54.811 109.703z" />
<glyph unicode="&#xe915;" glyph-name="arrow-left" d="M720.384 942.49l-514.56-514.56 514.56-514.56 127.488 128-387.072 386.56 387.072 387.072z" />
<glyph unicode="&#xe916;" glyph-name="arrow-right" d="M303.616-46.49l514.56 514.56-514.56 514.56-127.488-128 387.072-386.56-387.072-387.072z" />
<glyph unicode="&#xe917;" glyph-name="tasks-line" horiz-adv-x="832" d="M777.053-64h-722.359c-0.089-0.001-0.195-0.001-0.301-0.001-29.925 0-54.206 24.166-54.393 54.047v819.764c0.783 30.31 25.54 54.582 55.966 54.582 2.832 0 5.616-0.21 8.335-0.616l-0.307 0.038h63.964v-64.024h-63.964v-799.795h703.818v799.795h-63.994v64.024h72.005c0.474 0.015 1.032 0.023 1.591 0.023 29.912 0 54.185-24.144 54.392-54.007v-819.766c-0.187-29.899-24.468-54.065-54.393-54.065-0.127 0-0.254 0-0.381 0.001h0.019zM373.015 199.628l-171.492 171.492c-4.745 5.546-7.633 12.803-7.633 20.736 0 17.663 14.319 31.982 31.982 31.982 8.089 0 15.477-3.003 21.109-7.956l-0.036 0.031 126.009-126.009 276.409 276.409c5.466 4.495 12.535 7.22 20.241 7.22 17.663 0 31.982-14.319 31.982-31.982 0-7.706-2.725-14.775-7.264-20.296l0.044 0.056zM671.836 671.74h-511.865v117.488c0.27 41.060 33.492 74.272 74.531 74.525h57.298c14.614 55.772 64.564 96.253 123.968 96.253s109.355-40.481 123.77-95.362l0.199-0.891h57.274c0 0 0.001 0 0.001 0 41.266 0 74.749-33.325 75.004-74.531v-0.024zM223.965 735.795h384.026v53.434c0 5.833-4.728 10.561-10.561 10.561v0h-117.548v31.982c-0.776 34.742-29.123 62.609-63.979 62.609s-63.203-27.867-63.978-62.537l-0.001-0.072v-31.982h-117.398c-5.833 0-10.561-4.728-10.561-10.561v0z" />
<glyph unicode="&#xe918;" glyph-name="settings-outline" horiz-adv-x="997" d="M403.534 960h191.034c28.641-0.424 52.402-20.8 58.028-47.827l0.068-0.39q0.222-1.108 0.38-2.216l14.943-106.44h0.253c20.309-9.887 37.568-20.158 53.886-31.675l-1.205 0.806 100.456 40.556c6.303 2.473 13.602 3.906 21.235 3.906 21.726 0 40.741-11.61 51.178-28.964l0.15-0.269 0.222-0.38 95.201-164.63c5.129-8.602 8.161-18.971 8.161-30.048 0-18.464-8.426-34.961-21.642-45.854l-0.102-0.081-0.697-0.57-85.070-66.77s0-0.38 0-0.507c0.918-11.619 1.33-21.339 1.33-30.583q0-0.886 0-1.805c0-9.498-0.57-19.186-1.393-28.779l85.766-67.245c13.277-10.991 21.673-27.476 21.673-45.922 0-11.080-3.029-21.453-8.305-30.335l0.151 0.274-95.359-164.947c-10.588-17.624-29.602-29.234-51.329-29.234-7.633 0-14.932 1.433-21.642 4.045l0.407-0.139-0.633 0.253-99.95 40.239-0.38-0.253c-15.012-10.492-32.227-20.677-50.198-29.561l-2.357-1.053-14.88-106.535q0-0.57-0.19-1.171c-5.090-28.091-29.044-49.22-58.056-49.894l-0.071-0.001h-191.668c-28.641 0.424-52.402 20.8-58.028 47.827l-0.068 0.39q-0.222 1.108-0.38 2.216l-14.943 106.44h-0.253c-20.309 9.887-37.568 20.158-53.886 31.675l1.205-0.806-100.488-40.493c-6.303-2.473-13.602-3.906-21.235-3.906-21.726 0-40.741 11.61-51.178 28.964l-0.15 0.269-0.222 0.38-95.296 164.694c-5.129 8.602-8.161 18.971-8.161 30.048 0 18.464 8.426 34.961 21.642 45.854l0.102 0.081 0.697 0.57 84.911 66.644s0 0.317 0 0.412c-0.95 11.239-1.425 21.339-1.425 30.868s0.475 19.851 1.425 30.488l-85.038 66.802-0.76 0.728c-13.077 10.998-21.329 27.369-21.329 45.667 0 11.067 3.019 21.429 8.278 30.308l-0.151-0.276 95.327 164.947c10.59 17.615 29.599 29.218 51.319 29.218 7.649 0 14.962-1.439 21.683-4.061l-0.406 0.14 0.633-0.253 99.95-40.239 0.412 0.19c15.021 10.493 32.246 20.679 50.229 29.562l2.358 1.053 14.848 106.535q0 0.57 0.19 1.171c5.083 28.117 29.077 49.263 58.124 49.894l0.066 0.001zM583.994 888.766h-170.424l-13.55-96.372c-3.406-23.937-18.341-43.766-38.906-53.921l-0.415-0.185c-16.719-8.162-30.875-16.526-44.308-25.856l1.092 0.718c-11.38-7.992-25.522-12.772-40.78-12.772-9.532 0-18.628 1.866-26.943 5.251l0.478-0.172-90.262 36.377-85.133-147.186 76.49-60.153c16.664-13.118 27.267-33.29 27.267-55.938 0-2.141-0.095-4.261-0.28-6.354l0.019 0.271v-0.222c-0.76-8.548-1.14-16.495-1.14-24.283s0.38-15.513 1.171-24.695c0.195-1.978 0.307-4.275 0.307-6.598 0-22.541-10.488-42.633-26.851-55.66l-0.145-0.111-76.68-60.153 84.975-147.186 90.198 36.314c7.868 3.256 17.006 5.146 26.584 5.146 15.215 0 29.316-4.77 40.888-12.896l-0.228 0.151c12.297-8.71 26.341-17.064 41.038-24.293l1.829-0.813c21.211-10.269 36.356-30.16 39.844-53.846l0.047-0.387 13.424-95.675h170.297l13.55 96.372c3.406 23.937 18.341 43.766 38.906 53.921l0.415 0.185c16.707 8.164 30.851 16.527 44.275 25.855l-1.091-0.717c11.389 8.010 25.545 12.801 40.821 12.801 9.528 0 18.622-1.864 26.934-5.248l-0.478 0.172 90.262-36.44 85.070 147.186-92.225 72.342c-8.344 6.58-13.652 16.689-13.652 28.038 0 1.769 0.129 3.508 0.378 5.208l-0.023-0.193c1.885 12.361 3.031 26.723 3.165 41.328l0.001 0.147q0 0.602 0 1.171c0 6.902-0.38 14.373-1.108 23.396-0.184 1.918-0.289 4.146-0.289 6.399 0 22.618 10.56 42.77 27.019 55.793l0.149 0.114 76.743 60.153-85.070 147.186-90.198-36.282c-7.868-3.256-17.006-5.146-26.584-5.146-15.215 0-29.316 4.77-40.888 12.896l0.228-0.151c-12.288 8.709-26.322 17.062-41.008 24.293l-1.828 0.813c-21.211 10.269-36.356 30.16-39.844 53.846l-0.047 0.387zM498.513 625.991c5.857 0 11.746-0.285 17.571-0.855 90.524-9.213 160.566-85.038 160.566-177.222 0-70.675-41.17-131.734-100.835-160.504l-1.066-0.463c-22.297-10.802-48.496-17.115-76.169-17.115-49.174 0-93.692 19.934-125.914 52.162v0c-32.275 32.235-52.24 76.789-52.24 126.006 0 98.354 79.732 178.086 178.086 178.086 0.079 0 0.157 0 0.236 0h-0.012zM498.513 341.054c0.051 0 0.11 0 0.17 0 16.529 0 32.173 3.784 46.115 10.534l-0.632-0.276c36.456 17.533 61.173 54.178 61.173 96.595 0 55.347-42.080 100.865-95.992 106.306l-0.45 0.037c-3.451 0.348-6.997 0.507-10.511 0.507-58.999-0.018-106.821-47.85-106.821-106.851 0-29.514 11.966-56.234 31.312-75.571v0c19.225-19.267 45.806-31.187 75.171-31.187 0.241 0 0.482 0.001 0.723 0.002h-0.037z" />
<glyph unicode="&#xe919;" glyph-name="magnifying-glass" horiz-adv-x="1026" d="M990.455 140.369l-173.194 173.194-133.238 55.057c42.469 60.118 67.882 134.918 67.882 215.654 0 207.935-168.564 376.499-376.499 376.499s-376.499-168.564-376.499-376.499c0-207.935 168.564-376.499 376.499-376.499 81.618 0 157.171 25.971 218.844 70.1l-1.138-0.774 54.905-132.873 173.194-173.194c21.66-21.649 51.577-35.038 84.622-35.038 66.112 0 119.706 53.594 119.706 119.706 0 33.067-13.408 63.003-35.083 84.667l-0.001 0.001zM68.366 583.987c0 169.909 137.738 307.647 307.647 307.647s307.647-137.738 307.647-307.647c0-169.909-137.738-307.647-307.647-307.647v0c-169.832 0.19-307.456 137.814-307.647 307.628v0.019zM942.113 19.376c-9.285-9.273-22.105-15.007-36.264-15.007s-26.98 5.734-36.265 15.007l-163.591 163.53-51.047 123.575 123.575-51.047 163.592-163.683c9.263-9.283 14.992-22.097 14.992-36.249s-5.728-26.966-14.993-36.25l0.001 0.001z" />
<glyph unicode="&#xe91a;" glyph-name="lightbulb" horiz-adv-x="759" d="M371.977-64h14.533c127.209 0.104 230.304 103.199 230.408 230.398v118.824c86.653 70.088 141.6 176.407 141.6 295.56 0 209.459-169.8 379.259-379.259 379.259s-379.259-169.8-379.259-379.259c0-119.153 54.948-225.472 140.886-295.001l0.714-0.559v-118.814c0.104-127.209 103.199-230.304 230.398-230.408h0.010zM386.511 4.267h-14.533c-67.993 0.089-126.184 41.961-150.282 101.313l-0.39 1.087h315.908c-24.488-60.439-82.679-102.311-150.661-102.4h-0.011zM548.652 174.933h-338.785v85.349h338.815zM68.267 580.741c0 0.031 0 0.068 0 0.104 0 171.756 139.236 310.993 310.993 310.993s310.993-139.236 310.993-310.993c0-102.8-49.879-193.951-126.755-250.571l-0.858-0.603-1.335-1.123h-364.089l-1.426 1.032c-77.574 57.354-127.384 148.416-127.613 251.124v0.037z" />
<glyph unicode="&#xe91b;" glyph-name="notif" d="M870.4 366.82v183.58c-0.308 163.951-110.55 302.070-260.925 344.591l-2.528 0.611c-15.577 37.911-52.216 64.121-94.976 64.121s-79.399-26.209-94.728-63.439l-0.248-0.681c-152.878-43.152-263.095-181.265-263.396-345.167v-183.615l-87.381-87.438c-9.268-9.257-15.006-22.048-15.019-36.179v-102.403c0-28.277 22.923-51.2 51.2-51.2v0h819.2c28.277 0 51.2 22.923 51.2 51.2v0 102.4c-0.013 14.133-5.75 26.924-15.018 36.181l-0.001 0.001zM870.4 192h-716.8v29.98l87.381 87.381c9.279 9.268 15.019 22.077 15.019 36.226 0 0.004 0 0.008 0 0.012v-0.001 204.8c0 141.385 114.615 256 256 256s256-114.615 256-256v0-204.8c0.013-14.133 5.75-26.924 15.018-36.181l87.382-87.439zM512-64c0.054 0 0.117 0 0.181 0 66.289 0 122.705 42.274 143.758 101.334l0.332 1.066h-288.54c21.385-60.126 77.8-102.4 144.090-102.4 0.063 0 0.127 0 0.19 0h-0.010z" />
<glyph unicode="&#xe91c;" glyph-name="commercial" horiz-adv-x="1264" d="M1263.851 960l-57.776-16.932-1034.031-314.558h-172.044v-361.1h172.124l88.831-26.802-1.364-4.012v-1.444c-4.892-15.881-7.71-34.136-7.71-53.050 0-83.475 54.88-154.131 130.528-177.858l1.32-0.357c0.441 0 1.003 0 1.364 0 16.106-5.068 34.627-7.988 53.83-7.988 83.388 0 153.916 55.063 177.208 130.813l0.348 1.313 1.364 4.253 588.272-179.186 57.776-16.891v1023.799zM1173.576 838.67v-781.421l-985.924 300.435h-97.377v180.55h97.296l5.657 1.364 980.347 299.111zM347.057 213.847l184.562-55.088-1.364-4.012v-1.364c-12.228-40.183-48.959-68.919-92.402-68.919-53.242 0-96.402 43.161-96.402 96.402 0 9.799 1.462 19.257 4.18 28.167l-0.179-0.683v1.364l1.364 4.293z" />
<glyph unicode="&#xe91d;" glyph-name="remove-circle" d="M354.088 353.283c-16.189-17.599-15.751-44.894 1.252-61.898s44.299-17.441 61.832-1.314l0.066 0.062 252.858 252.858c16.189 17.599 15.751 44.894-1.252 61.898s-44.299 17.441-61.832 1.314l-0.066-0.062zM669.867 353.238c0.398-0.365 0.855-0.803 1.304-1.252 17.453-17.453 17.453-45.749 0-63.202s-45.749-17.453-63.202 0c-0.45 0.45-0.887 0.906-1.314 1.37l0.062-0.066-252.858 252.858c-0.398 0.365-0.855 0.803-1.304 1.252-17.453 17.453-17.453 45.749 0 63.202s45.749 17.453 63.202 0c0.45-0.45 0.887-0.906 1.314-1.37l-0.062 0.066zM1024 448v0c0 282.77-229.23 512-512 512v0c-282.77 0-512-229.23-512-512s229.23-512 512-512c282.77 0 512 229.23 512 512zM930.889 448c0-231.346-187.543-418.889-418.889-418.889s-418.889 187.543-418.889 418.889c0 231.346 187.543 418.889 418.889 418.889v0c231.346 0 418.889-187.543 418.889-418.889v0z" />
<glyph unicode="&#xe91e;" glyph-name="user-basic" horiz-adv-x="852" d="M426.171 960c131.654-0.515 238.181-107.359 238.181-239.085 0-132.044-107.043-239.086-239.086-239.086s-239.086 107.043-239.086 239.086c0 66.19 26.897 126.099 70.359 169.391l0.008 0.007c43.323 43.067 103.037 69.687 168.968 69.687 0.231 0 0.462 0 0.693-0.001h-0.036zM852.117 100.132c-112.218-101.737-261.847-164.010-426.021-164.010s-313.803 62.273-426.555 164.487l0.535-0.477v30.855c-0.067 2.28-0.106 4.962-0.106 7.652 0 149.229 118.031 270.89 265.83 276.721l0.529 0.017h319.534c148.364-6.156 266.311-127.925 266.311-277.242 0-1.984-0.021-3.963-0.062-5.938l0.005 0.295z" />
<glyph unicode="&#xe920;" glyph-name="auth-password" d="M516.934 947.991c-142.503-0.159-257.982-115.638-258.141-258.126v-103.253h-51.619c-56.985-0.079-103.158-46.253-103.238-103.23v-464.625c0.079-56.985 46.253-103.158 103.23-103.238h619.528c56.985 0.079 103.158 46.253 103.238 103.23v464.625c-0.079 56.985-46.253 103.158-103.23 103.238h-51.627v103.238c-0.159 142.503-115.638 257.982-258.126 258.141h-0.015zM362.077 689.85c0 85.538 69.342 154.88 154.88 154.88s154.88-69.342 154.88-154.88v-103.238h-309.76zM826.833 18.711h-258.281v117.62c31.076 18.182 51.619 51.395 51.619 89.407 0 57.017-46.221 103.238-103.238 103.238s-103.238-46.221-103.238-103.238c0-38.011 20.543-71.224 51.132-89.143l0.487-0.264v-117.62h-258.141v464.663h619.52z" />
<glyph unicode="&#xe921;" glyph-name="auth-user" d="M926.892 33.108v30.901c0 87.617-71.282 158.899-158.899 158.899h-90.272c-52.928-21.245-108.572-32-165.725-32-56.966 0-112.591 10.756-165.661 32h-90.336c-87.617 0-158.899-71.282-158.899-158.899v-30.901h829.793zM511.995 481.104c105.262 0 190.899 85.637 190.899 190.899s-85.637 190.899-190.899 190.899c-105.262 0-190.899-85.637-190.899-190.899s85.637-190.899 190.899-190.899zM927.991-63.99h-831.992c-53 0-95.999 43-95.999 95.999v32c0 141.399 114.599 255.998 255.998 255.998h110.199c44.6-20.4 93.799-32 145.799-32s101.399 11.6 145.799 32h110.199c141.399 0 255.998-114.599 255.998-255.998v-32c0-53-43-95.999-95.999-95.999zM511.995 384.005c-158.999 0-287.997 128.999-287.997 287.997s128.999 287.997 287.997 287.997c158.999 0 287.997-128.999 287.997-287.997s-128.999-287.997-287.997-287.997z" />
<glyph unicode="&#xe922;" glyph-name="clock" d="M511.907 960c-282.75-0.026-511.954-229.247-511.954-512 0-282.77 229.23-512 512-512s512 229.23 512 512c0 0.033 0 0.065 0 0.098v-0.005c0 282.719-229.189 511.907-511.907 511.907-0.049 0-0.098 0-0.147 0h0.008zM629.808 237.245l-182.092 132.325c-6.109 4.6-10.018 11.838-10.018 19.99 0 0.016 0 0.033 0 0.049v-0.003 347.44c0.052 13.658 11.11 24.715 24.762 24.767h99.075c13.658-0.052 24.715-11.11 24.767-24.762v-284.321l131.073-95.359c6.207-4.556 10.191-11.825 10.191-20.024 0-5.52-1.806-10.618-4.859-14.736l0.047 0.067-58.208-80.054c-4.596-6.167-11.869-10.118-20.064-10.118-5.496 0-10.577 1.777-14.7 4.787l0.071-0.049z" />
<glyph unicode="&#xe923;" glyph-name="layer-group" d="M24.814 663.95l465.851-211.312c6.247-2.939 13.568-4.654 21.289-4.654s15.042 1.715 21.602 4.785l-0.313-0.132 465.897 211.312c14.841 7.468 24.846 22.579 24.846 40.027s-10.004 32.559-24.589 39.91l-0.256 0.117-465.758 211.312c-6.247 2.939-13.568 4.654-21.289 4.654s-15.042-1.715-21.602-4.785l0.313 0.132-465.99-211.312c-14.836-7.483-24.834-22.599-24.834-40.050s9.998-32.567 24.578-39.933l0.256-0.117zM999.14 487.377l-115.953 52.642-323.276-146.518c-14.015-6.531-30.425-10.341-47.726-10.341s-33.711 3.81-48.439 10.637l0.713-0.296-323.461 146.518-116.184-52.642c-14.846-7.453-24.857-22.56-24.857-40.004s10.011-32.55 24.6-39.887l0.257-0.117 465.851-211.173c6.25-2.919 13.571-4.622 21.289-4.622s15.038 1.703 21.606 4.754l-0.317-0.132 465.897 211.173c14.846 7.453 24.857 22.56 24.857 40.004s-10.011 32.55-24.6 39.887l-0.257 0.117zM999.14 231.772l-115.953 52.457-323.693-146.75c-14.015-6.531-30.425-10.341-47.726-10.341s-33.711 3.81-48.439 10.637l0.713-0.296-323.461 146.75-115.767-52.457c-14.846-7.453-24.857-22.56-24.857-40.004s10.011-32.55 24.6-39.887l0.257-0.117 465.851-211.173c6.25-2.919 13.571-4.622 21.289-4.622s15.038 1.703 21.606 4.754l-0.317-0.132 465.897 211.173c14.846 7.453 24.857 22.56 24.857 40.004s-10.011 32.55-24.6 39.887l-0.257 0.117z" />
<glyph unicode="&#xe924;" glyph-name="users" horiz-adv-x="1463" d="M219.451 521.15c80.8 0 146.301 65.501 146.301 146.301s-65.501 146.301-146.301 146.301c-80.8 0-146.301-65.501-146.301-146.301v0c0.060-80.776 65.526-146.241 146.295-146.301h0.006zM1243.451 521.15c80.8 0 146.301 65.501 146.301 146.301s-65.501 146.301-146.301 146.301c-80.8 0-146.301-65.501-146.301-146.301v0c0.060-80.757 65.495-146.21 146.239-146.301h0.009zM1316.602 448h-146.301c-0.080 0-0.175 0-0.27 0-40.123 0-76.463-16.199-102.837-42.414l0.007 0.007c92.17-50.887 156.982-141.602 171.447-248.31l0.192-1.727h150.86c0.032 0 0.069 0 0.106 0 40.341 0 73.044 32.703 73.044 73.044 0 0.037 0 0.075 0 0.112v-0.006 73.15c-0.151 80.707-65.581 146.082-146.295 146.142h-0.006zM731.451 448c141.348 0.030 255.92 114.622 255.92 255.973 0 141.37-114.603 255.973-255.973 255.973-141.352 0-255.943-114.573-255.973-255.918v-0.003c0-0.047 0-0.103 0-0.159 0-141.312 114.556-255.867 255.867-255.867 0.075 0 0.149 0 0.224 0h-0.012zM907.012 374.85h-18.977c-45.661-23.059-99.533-36.564-156.558-36.564s-110.896 13.504-158.59 37.49l2.032-0.926h-18.977c-145.386-0.061-263.228-117.903-263.289-263.283v-65.947c0-60.6 49.126-109.726 109.726-109.726v0h658.195c60.6 0 109.726 49.126 109.726 109.726v0 65.941c-0.061 145.405-117.933 263.258-263.339 263.289h-0.003zM395.701 405.488c-26.366 26.207-62.706 42.406-102.829 42.406-0.095 0-0.19 0-0.285 0h-146.286c-80.738-0.060-146.18-65.465-146.301-146.183v-73.162c0-0.032 0-0.069 0-0.106 0-40.341 32.703-73.044 73.044-73.044 0.037 0 0.075 0 0.112 0h150.588c14.838 108.45 79.705 199.147 170.182 249.216l1.721 0.874z" />
<glyph unicode="&#xe925;" glyph-name="activity" horiz-adv-x="1126" d="M716.772-64c-0.034 0-0.075 0-0.116 0-22.455 0-41.521 14.506-48.339 34.658l-0.106 0.36-258.621 775.862-105.007-315.066c-6.924-20.512-25.99-35.018-48.445-35.018-0.041 0-0.082 0-0.122 0h-204.998c-28.28 0-51.205 22.925-51.205 51.205s22.925 51.205 51.205 51.205v0h167.899l141.926 425.778c6.817 20.697 25.975 35.373 48.561 35.373s41.744-14.677 48.458-35.013l0.103-0.361 258.621-775.862 105.007 315.066c6.924 20.512 25.99 35.018 48.445 35.018 0.041 0 0.082 0 0.122 0h204.813c28.28 0 51.205-22.925 51.205-51.205s-22.925-51.205-51.205-51.205v0h-167.899l-141.787-425.778c-6.924-20.512-25.99-35.018-48.445-35.018-0.025 0-0.049 0-0.074 0h0.004z" />
<glyph unicode="&#xe926;" glyph-name="info" d="M497.197 943.458c-269.215 0-487.457-218.242-487.457-487.457s218.242-487.457 487.457-487.457c269.215 0 487.457 218.242 487.457 487.457v0c-0.308 269.091-218.366 487.149-487.427 487.457h-0.030zM497.197 66.097c-215.381 0-389.981 174.6-389.981 389.981s174.6 389.981 389.981 389.981c215.381 0 389.981-174.6 389.981-389.981v0c-0.22-215.292-174.689-389.761-389.96-389.981h-0.021zM448.42 504.777h97.476v-292.428h-97.476zM448.42 699.729h97.476v-97.476h-97.476z" />
<glyph unicode="&#xe927;" glyph-name="attachment" horiz-adv-x="896" d="M633.832 632.987l-64.964 64.869-324.537-324.727c-23.85-24.744-38.543-58.457-38.543-95.601 0-76.124 61.711-137.835 137.835-137.835 37.144 0 70.857 14.693 95.643 38.583l-0.042-0.040 389.787 389.692c42.515 41.713 68.867 99.769 68.867 163.98 0 126.839-102.823 229.662-229.662 229.662-64.235 0-122.311-26.371-163.991-68.878l-0.036-0.037-410.457-410.457c-57.951-57.963-93.793-138.031-93.793-226.471 0-176.903 143.408-320.312 320.312-320.312 88.463 0 168.551 35.862 226.518 93.84l280.148 280.148-64.964 64.964-280.338-279.385c-40.351-36.491-94.111-58.822-153.085-58.822-126.26 0-228.614 102.354-228.614 228.614 0 58.904 22.277 112.604 58.865 153.136l-0.179-0.201 410.457 410.457c24.628 23.284 57.947 37.599 94.611 37.599 76.124 0 137.835-61.711 137.835-137.835 0-36.64-14.296-69.94-37.615-94.628l0.062 0.066-389.977-390.168c-8.313-8.313-19.797-13.455-32.482-13.455-25.37 0-45.937 20.567-45.937 45.937 0 12.685 5.142 24.169 13.455 32.482v0l324.822 324.822z" />
<glyph unicode="&#xe928;" glyph-name="general" d="M512 960c282.678-0.226 511.746-229.434 511.746-512.143 0-210.725-127.268-391.726-309.133-470.331l-3.319-1.277c-57.588-24.349-124.548-38.499-194.812-38.499-282.849 0-512.143 229.294-512.143 512.143 0 209.163 125.387 389.040 305.096 468.565l3.271 1.292c58.529 25.446 126.706 40.25 198.341 40.25 0.335 0 0.669 0 1.004-0.001h-0.051zM512 29.074c231.367 0 418.926 187.56 418.926 418.926s-187.56 418.926-418.926 418.926c-231.367 0-418.926-187.56-418.926-418.926v0c0.135-231.312 187.614-418.791 418.913-418.926h0.013zM977.463 401.463h-930.926c-25.702 0-46.537 20.835-46.537 46.537s20.835 46.537 46.537 46.537h930.926c25.702 0 46.537-20.835 46.537-46.537s-20.835-46.537-46.537-46.537v0zM512 960c0.010 0 0.022 0 0.034 0 13.589 0 25.817-5.824 34.325-15.112l0.032-0.035c119.633-130.601 194.255-304.16 198.327-495.082l0.014-0.819q0-0.953 0-1.953c-4.113-191.729-78.749-365.268-198.902-496.42l0.513 0.568c-8.54-9.33-20.773-15.158-34.367-15.158s-25.827 5.829-34.335 15.123l-0.032 0.035c-119.633 130.601-194.255 304.16-198.327 495.082l-0.014 0.819q0 0.953 0 1.953c4.098 191.722 78.717 365.262 198.854 496.42l-0.513-0.568c8.539 9.323 20.768 15.147 34.356 15.147 0.012 0 0.024 0 0.036 0h-0.002zM651.61 448c-3.403 149.205-55.402 285.638-140.715 394.767l1.104-1.467c-84.208-107.662-136.207-244.095-139.597-392.535l-0.014-0.765c3.403-149.205 55.402-285.638 140.715-394.767l-1.104 1.467c84.208 107.662 136.207 244.095 139.597 392.535l0.014 0.765z" />
<glyph unicode="&#xe929;" glyph-name="parametre" horiz-adv-x="996" d="M878.576 397.838c2.28 15.073 3.582 32.466 3.582 50.162s-1.302 35.089-3.816 52.087l0.234-1.925 108.017 84.499c5.818 4.775 9.501 11.967 9.501 20.019 0 4.684-1.246 9.077-3.425 12.865l0.067-0.126-102.372 177.076c-4.553 7.653-12.781 12.701-22.188 12.701-3.241 0-6.342-0.599-9.198-1.693l0.176 0.059-127.274-51.186c-24.977 19.534-53.495 36.378-84.086 49.27l-2.46 0.92-19.478 135.685c-1.642 12.336-12.097 21.753-24.75 21.753-0.189 0-0.378-0.002-0.567-0.006h-204.717c-0.103 0.002-0.225 0.002-0.347 0.002-12.574 0-22.976-9.299-24.704-21.395l-0.016-0.133-19.534-135.685c-33.040-14.061-61.534-30.884-87.465-50.871l0.919 0.681-127.274 51.186c-2.771 1.153-5.989 1.823-9.364 1.823-9.355 0-17.508-5.148-21.781-12.765l-0.065-0.126-102.372-177.076c-2.224-3.683-3.539-8.132-3.539-12.888 0-8.045 3.765-15.21 9.628-19.831l0.054-0.041 108.017-84.499c-2.12-14.928-3.421-32.321-3.595-49.983l-0.002-0.207c0.176-17.87 1.477-35.262 3.838-52.316l-0.241 2.126-108.293-84.665c-5.818-4.775-9.501-11.967-9.501-20.019 0-4.684 1.246-9.077 3.425-12.865l-0.067 0.126 102.372-177.076c4.553-7.653 12.781-12.701 22.188-12.701 3.241 0 6.342 0.599 9.198 1.693l-0.176-0.059 127.274 51.186c24.977-19.534 53.495-36.378 84.086-49.27l2.46-0.92 19.478-135.685c1.744-12.229 12.146-21.528 24.72-21.528 0.122 0 0.244 0.001 0.366 0.003h204.727c0.103-0.002 0.225-0.002 0.347-0.002 12.574 0 22.976 9.299 24.704 21.395l0.016 0.133 19.478 135.685c33.040 14.061 61.534 30.884 87.465 50.871l-0.919-0.681 127.274-51.186c2.771-1.153 5.989-1.823 9.364-1.823 9.355 0 17.508 5.148 21.781 12.765l0.065 0.126 102.372 177.076c2.112 3.663 3.358 8.056 3.358 12.74 0 8.052-3.683 15.244-9.456 19.983l-0.045 0.036-108.017 84.499zM498.138 268.793c-98.958 0-179.179 80.221-179.179 179.179s80.221 179.179 179.179 179.179c98.958 0 179.179-80.221 179.179-179.179v0c-0.126-98.907-80.272-179.053-179.167-179.179h-0.012z" />
<glyph unicode="&#xe92a;" glyph-name="doc" horiz-adv-x="768" d="M448.010 688.023v271.977h-400.011c-0.033 0-0.071 0-0.11 0-26.449 0-47.889-21.441-47.889-47.889 0-0.039 0-0.077 0-0.116v0.006-928.002c0-0.033 0-0.071 0-0.11 0-26.449 21.441-47.889 47.889-47.889 0.039 0 0.077 0 0.116 0h671.982c0.033 0 0.071 0 0.11 0 26.449 0 47.889 21.441 47.889 47.889 0 0.039 0 0.077 0 0.116v-0.006 656.025h-271.977c-26.472 0.093-47.906 21.527-47.999 47.99v0.009zM575.99 216.26c-0.031-13.238-10.739-23.965-23.966-24.027h-336c-13.214 0.062-23.91 10.758-23.972 23.966v16.024c0.062 13.234 10.789 23.941 24.024 23.972h335.997c13.257-0.031 23.996-10.77 24.027-24.024v-0.003zM575.99 344.24c-0.031-13.238-10.739-23.965-23.966-24.027h-336c-13.214 0.062-23.91 10.758-23.972 23.966v16.024c0.062 13.234 10.789 23.941 24.024 23.972h335.997c13.257-0.031 23.996-10.77 24.027-24.024v-0.003zM575.99 488.237v-16.457c-0.031-13.238-10.739-23.965-23.966-24.027h-336c-13.257 0.031-23.996 10.77-24.027 24.024v16.46c0.062 13.234 10.789 23.941 24.024 23.972h335.997c13.214-0.062 23.91-10.758 23.972-23.966v-0.006zM767.986 716.219v-12.178h-256.014v255.959h12.178c0.048 0 0.106 0 0.163 0 13.213 0 25.177-5.345 33.849-13.99l-0.001 0.001 195.782-196.001c8.661-8.645 14.025-20.59 14.043-33.788v-0.004z" />
<glyph unicode="&#xe92b;" glyph-name="perimetre" horiz-adv-x="1279" d="M895.244-64.069c70.893 0.503 128.223 57.858 128.687 128.712v0.044c0.011 0.618 0.018 1.348 0.018 2.078 0 34.575-14.569 65.747-37.903 87.712l-0.061 0.057c-22.721 22.813-54.16 36.93-88.895 36.93-0.673 0-1.345-0.005-2.016-0.016l0.101 0.001c-0.616 0.011-1.342 0.017-2.070 0.017-34.384 0-65.468-14.135-87.756-36.911l-0.021-0.022c-22.796-22.118-36.943-53.039-36.943-87.265 0-0.908 0.010-1.814 0.030-2.717l-0.002 0.135c-0.007-0.502-0.011-1.096-0.011-1.69 0-34.806 14.112-66.315 36.926-89.12v0c22.099-23.397 53.336-37.962 87.975-37.962 0.683 0 1.364 0.006 2.044 0.017l-0.102-0.001zM384.275-64.069c0.592-0.010 1.291-0.016 1.991-0.016 34.602 0 65.802 14.567 87.801 37.903l0.056 0.060c22.814 22.742 36.929 54.198 36.929 88.951 0 0.653-0.005 1.306-0.015 1.957l0.001-0.098c0.001 0.205 0.002 0.447 0.002 0.689 0 69.629-56.446 126.075-126.075 126.075-0.242 0-0.484-0.001-0.726-0.002h0.037c-0.528 0.008-1.15 0.013-1.774 0.013-34.779 0-66.262-14.114-89.034-36.926l-0.002-0.002c-23.396-22.077-37.962-53.295-37.962-87.915 0-0.679 0.006-1.357 0.017-2.034l-0.001 0.102c-0.008-0.537-0.013-1.171-0.013-1.805 0-34.96 14.547-66.523 37.918-88.965l0.042-0.040c22.687-23.417 54.423-37.953 89.553-37.953 0.442 0 0.883 0.002 1.324 0.007l-0.067-0.001zM128.756 574.694c-0.561 0.009-1.223 0.014-1.887 0.014-34.744 0-66.191-14.116-88.92-36.926l-0.004-0.004c-23.397-22.099-37.961-53.336-37.961-87.974 0-0.659 0.005-1.316 0.016-1.973l-0.001 0.099c0.464-70.922 57.834-128.292 128.712-128.756h0.044c0.601-0.011 1.31-0.017 2.020-0.017 34.593 0 65.783 14.568 87.771 37.903l0.057 0.061c22.812 22.669 36.932 54.063 36.932 88.755 0 0.723-0.006 1.444-0.018 2.164l0.001-0.108c0.013 0.674 0.021 1.469 0.021 2.266 0 34.431-14.134 65.562-36.916 87.906l-0.020 0.019c-22.107 22.796-53.019 36.943-87.236 36.943-0.918 0-1.834-0.010-2.747-0.030l0.136 0.002zM384.275 959.656c-70.803-0.462-128.099-57.638-128.756-128.35v-0.063c-0.011-0.618-0.018-1.348-0.018-2.078 0-34.575 14.569-65.747 37.903-87.712l0.061-0.057c22.721-22.813 54.16-36.93 88.895-36.93 0.673 0 1.345 0.005 2.016 0.016l-0.101-0.001c0.616-0.011 1.342-0.017 2.070-0.017 34.384 0 65.468 14.135 87.756 36.911l0.021 0.022c22.796 22.118 36.943 53.039 36.943 87.265 0 0.908-0.010 1.814-0.030 2.717l0.002-0.135c0.006 0.462 0.010 1.008 0.010 1.554 0 34.873-14.167 66.437-37.059 89.252l-0.003 0.003c-22.099 23.397-53.336 37.961-87.974 37.961-0.659 0-1.316-0.005-1.973-0.016l0.099 0.001zM639.794 574.694c-0.561 0.009-1.223 0.014-1.887 0.014-34.744 0-66.191-14.116-88.92-36.926l-0.004-0.004c-23.397-22.099-37.961-53.336-37.961-87.974 0-0.659 0.005-1.316 0.016-1.973l-0.001 0.099c0-0.108-0.001-0.235-0.001-0.363 0-70.92 57.492-128.412 128.412-128.412 35.636 0 67.881 14.516 91.146 37.957l0.008 0.008c23.414 22.547 37.957 54.164 37.957 89.178 0 0.574-0.004 1.147-0.012 1.718l0.001-0.087c0.008 0.531 0.013 1.158 0.013 1.786 0 34.665-14.562 65.929-37.903 88.008l-0.057 0.053c-22.638 22.813-54.005 36.935-88.671 36.935-0.776 0-1.551-0.007-2.323-0.021l0.116 0.002zM895.313 959.656c-0.592 0.010-1.291 0.016-1.991 0.016-34.602 0-65.802-14.567-87.801-37.903l-0.056-0.060c-22.814-22.742-36.929-54.198-36.929-88.951 0-0.653 0.005-1.306 0.015-1.957l-0.001 0.098c-0.001-0.205-0.002-0.447-0.002-0.689 0-69.629 56.446-126.075 126.075-126.075 0.242 0 0.484 0.001 0.726 0.002h-0.037c0.528-0.008 1.15-0.013 1.774-0.013 34.779 0 66.262 14.114 89.034 36.926l0.002 0.002c23.32 22.068 37.833 53.236 37.833 87.793 0 0.843-0.009 1.684-0.026 2.523l0.002-0.125c0.008 0.537 0.013 1.171 0.013 1.805 0 34.96-14.547 66.523-37.918 88.965l-0.042 0.040c-22.687 23.417-54.423 37.953-89.553 37.953-0.442 0-0.883-0.002-1.324-0.007l0.067 0.001zM1150.831 574.694c-0.246 0.002-0.536 0.003-0.826 0.003-69.629 0-126.075-56.446-126.075-126.075 0-0.218 0.001-0.437 0.002-0.655v0.034c-0.009-0.561-0.014-1.223-0.014-1.887 0-34.744 14.116-66.191 36.926-88.92l0.004-0.004c22.099-23.397 53.336-37.961 87.974-37.961 0.659 0 1.316 0.005 1.973 0.016l-0.099-0.001c70.922 0.464 128.292 57.834 128.756 128.712v0.044c0.011 0.601 0.017 1.31 0.017 2.020 0 34.593-14.568 65.783-37.903 87.771l-0.061 0.057c-22.662 22.771-54.029 36.863-88.686 36.863-0.723 0-1.444-0.006-2.163-0.018l0.108 0.001z" />
<glyph unicode="&#xe92c;" glyph-name="acces" horiz-adv-x="878" d="M877.658 813.724c0 0.073 0 0.161 0 0.248 0 80.786-65.49 146.276-146.276 146.276s-146.276-65.49-146.276-146.276c0-53.857 29.107-100.917 72.448-126.305l0.69-0.374v-120.977l-219.414-109.674-219.414 109.674v120.977c44.031 25.762 73.138 72.822 73.138 126.679 0 80.786-65.49 146.276-146.276 146.276s-146.276-65.49-146.276-146.276c0-53.857 29.107-100.917 72.448-126.305l0.69-0.374v-211.332l292.553-146.276v-120.78c-44.031-25.762-73.138-72.822-73.138-126.679 0-80.786 65.49-146.276 146.276-146.276s146.276 65.49 146.276 146.276c0 53.857-29.107 100.917-72.448 126.305l-0.69 0.374v120.78l292.553 146.276v211.332c44.008 25.763 73.104 72.794 73.138 126.623v0.005zM146.276 886.862c40.393 0 73.138-32.745 73.138-73.138s-32.745-73.138-73.138-73.138c-40.393 0-73.138 32.745-73.138 73.138v0c0 40.393 32.745 73.138 73.138 73.138v0zM438.829 9.204c-40.393 0-73.138 32.745-73.138 73.138s32.745 73.138 73.138 73.138c40.393 0 73.138-32.745 73.138-73.138v0c0-40.393-32.745-73.138-73.138-73.138v0zM731.382 740.586c-40.393 0-73.138 32.745-73.138 73.138s32.745 73.138 73.138 73.138c40.393 0 73.138-32.745 73.138-73.138v0c0-40.393-32.745-73.138-73.138-73.138v0z" />
<glyph unicode="&#xe92d;" glyph-name="file-archive" horiz-adv-x="878" d="M365.694 740.575v73.127h-73.127v-73.127zM438.821 667.448v73.127h-73.127v-73.127zM365.694 594.321v73.127h-73.127v-73.127zM438.821 521.194v73.127h-73.127v-73.127zM838.78 742.903c11.53-12.167 20.818-26.593 27.116-42.528l0.314-0.901c6.767-14.76 10.926-31.972 11.428-50.097l0.004-0.182v-658.291c0-0.071 0.001-0.155 0.001-0.239 0-30.167-24.455-54.621-54.621-54.621-0.084 0-0.168 0-0.252 0.001h-767.924c-0.264-0.005-0.576-0.007-0.889-0.007-14.861 0-28.292 6.128-37.902 15.994l-0.011 0.012c-9.878 9.621-16.006 23.052-16.006 37.913 0 0.313 0.003 0.625 0.008 0.936l-0.001-0.047v914.31c-0.005 0.264-0.007 0.576-0.007 0.889 0 14.861 6.128 28.292 15.994 37.902l0.012 0.011c9.63 9.939 23.101 16.109 38.013 16.109 0.277 0 0.554-0.002 0.831-0.006l-0.042 0.001h511.993c18.307-0.507 35.518-4.665 51.104-11.769l-0.826 0.337c16.835-6.612 31.262-15.9 43.489-27.487l-0.060 0.057zM585.075 882.336v-214.903h214.903c-2.628 9.048-6.948 16.885-12.636 23.514l0.070-0.084-178.862 178.862c-6.546 5.618-14.382 9.939-22.989 12.455l-0.441 0.111zM804.455 9.201v585.090h-237.618c-0.071 0-0.155-0.001-0.239-0.001-30.167 0-54.621 24.455-54.621 54.621 0 0.084 0 0.168 0.001 0.252v-0.013 237.782h-73.127v-73.127h-73.127v73.127h-292.582v-877.776h731.403zM446.268 421.159l61.188-199.427c2.815-8.872 4.478-19.082 4.566-29.668v-0.046c0-0.081 0-0.177 0-0.273 0-32.424-16.307-61.039-41.167-78.092l-0.322-0.209c-27.291-19.56-61.357-31.278-98.161-31.278-2.354 0-4.697 0.048-7.028 0.143l0.334-0.011c-2-0.084-4.346-0.132-6.703-0.132-36.801 0-70.865 11.718-98.664 31.627l0.512-0.348c-25.148 17.266-41.429 45.862-41.429 78.26 0 0.11 0 0.221 0.001 0.331v-0.017c0.089 10.631 1.752 20.841 4.767 30.453l-0.2-0.74q11.939 35.996 68.575 226.29v73.127h73.127v-73.127h45.174c0.13 0.002 0.283 0.003 0.436 0.003 8.265 0 15.875-2.809 21.925-7.524l-0.080 0.060c6.284-4.785 10.92-11.448 13.086-19.145l0.062-0.256zM365.679 155.515c0.962-0.029 2.093-0.046 3.228-0.046 17.615 0 34.291 4.019 49.161 11.19l-0.678-0.295q21.431 10.85 21.431 25.714t-21.416 25.639c-14.193 6.876-30.87 10.896-48.486 10.896-1.134 0-2.264-0.017-3.39-0.050l0.165 0.004c-0.961 0.029-2.091 0.046-3.225 0.046-17.616 0-34.293-4.019-49.164-11.19l0.678 0.295q-21.431-10.85-21.431-25.714t21.431-25.714c14.192-6.877 30.868-10.896 48.483-10.896 1.135 0 2.266 0.017 3.394 0.050l-0.165-0.004z" />
<glyph unicode="&#xe92e;" glyph-name="file-audio" horiz-adv-x="878" d="M838.825 742.873c11.53-12.167 20.818-26.593 27.116-42.528l0.314-0.901c6.767-14.76 10.926-31.972 11.428-50.097l0.004-0.182v-658.291c0-0.071 0.001-0.155 0.001-0.239 0-30.167-24.455-54.621-54.621-54.621-0.084 0-0.168 0-0.252 0.001h-767.968c-0.264-0.005-0.576-0.007-0.889-0.007-14.861 0-28.292 6.128-37.902 15.994l-0.011 0.012c-9.878 9.621-16.006 23.052-16.006 37.913 0 0.313 0.003 0.625 0.008 0.936l-0.001-0.047v914.34c-0.005 0.264-0.007 0.576-0.007 0.889 0 14.861 6.128 28.292 15.994 37.902l0.012 0.011c9.63 9.939 23.101 16.109 38.013 16.109 0.277 0 0.554-0.002 0.831-0.006l-0.042 0.001h511.993c18.307-0.507 35.518-4.665 51.104-11.769l-0.826 0.337c16.835-6.612 31.262-15.9 43.489-27.487l-0.060 0.057zM585.119 882.306v-214.903h214.903c-2.628 9.048-6.948 16.885-12.636 23.514l0.070-0.084-178.907 178.892c-6.546 5.618-14.382 9.939-22.989 12.455l-0.441 0.111zM804.5 9.172v585.119h-237.662c-0.071 0-0.155-0.001-0.239-0.001-30.167 0-54.621 24.455-54.621 54.621 0 0.084 0 0.168 0.001 0.252v-0.013 237.782h-438.836v-877.776h731.403zM354.262 474.288c6.728-2.35 11.468-8.642 11.468-16.041 0-0.389-0.013-0.775-0.039-1.158l0.003 0.052v-310.849c0.023-0.328 0.035-0.71 0.035-1.096 0-7.402-4.739-13.696-11.348-16.016l-0.119-0.036c-2.015-0.598-4.355-1.009-6.768-1.145l-0.082-0.004c-5.064 0.114-9.656 2.046-13.169 5.167l0.021-0.018-94.856 95.423h-74.813c-0.204-0.008-0.444-0.013-0.685-0.013-9.726 0-17.61 7.884-17.61 17.61 0 0.241 0.005 0.481 0.014 0.719l-0.001-0.034v109.735c-0.008 0.204-0.013 0.444-0.013 0.685 0 9.726 7.884 17.61 17.61 17.61 0.241 0 0.481-0.005 0.719-0.014l-0.034 0.001h74.858l94.856 95.423c3.183 3.437 7.72 5.581 12.757 5.581 2.626 0 5.116-0.583 7.348-1.626l-0.107 0.045zM592.552 80.582c0.279-0.008 0.606-0.013 0.935-0.013 11.241 0 21.233 5.35 27.568 13.644l0.062 0.084c45.904 56.080 73.722 128.512 73.722 207.442s-27.819 151.362-74.186 208.026l0.464-0.585c-5.74 7.661-14.473 12.81-24.432 13.705l-0.132 0.010c-1.381 0.199-2.975 0.312-4.596 0.312-8.537 0-16.338-3.148-22.307-8.346l0.041 0.035c-7.549-5.909-12.589-14.725-13.423-24.736l-0.009-0.127c-0.13-1.153-0.204-2.49-0.204-3.843 0-8.9 3.208-17.050 8.532-23.357l-0.044 0.054c35.599-43.598 57.168-99.869 57.168-161.178s-21.569-117.579-57.532-161.638l0.364 0.461c-5.279-6.253-8.487-14.403-8.487-23.303 0-1.354 0.074-2.69 0.219-4.006l-0.014 0.162c0.762-9.984 5.836-18.648 13.342-24.218l0.089-0.063c6.078-5.314 14.083-8.557 22.846-8.566h0.002zM472.026 165.156c0.074-0.001 0.162-0.001 0.25-0.001 10.463 0 19.905 4.372 26.599 11.388l0.014 0.015c30.787 32.58 49.713 76.652 49.713 125.144s-18.926 92.564-49.795 125.231l0.082-0.087c-6.443 6.919-15.554 11.278-25.686 11.431h-0.028c-0.623 0.040-1.35 0.062-2.083 0.062-9.406 0-17.941-3.728-24.208-9.787l0.010 0.009c-7.056-6.678-11.447-16.108-11.447-26.565 0-9.888 3.927-18.86 10.307-25.439l-0.009 0.009c18.402-19.495 29.713-45.855 29.713-74.858s-11.311-55.363-29.763-74.911l0.050 0.053c-6.371-6.57-10.298-15.541-10.298-25.43 0-10.456 4.391-19.887 11.43-26.549l0.017-0.016c6.64-5.982 15.458-9.66 25.135-9.715h0.011z" />
<glyph unicode="&#xe92f;" glyph-name="file-code" horiz-adv-x="878" d="M838.825 742.873c11.53-12.167 20.818-26.593 27.116-42.528l0.314-0.901c6.767-14.76 10.926-31.972 11.428-50.097l0.004-0.182v-658.291c0-0.071 0.001-0.155 0.001-0.239 0-30.167-24.455-54.621-54.621-54.621-0.084 0-0.168 0-0.252 0.001h-767.968c-0.264-0.005-0.576-0.007-0.889-0.007-14.861 0-28.292 6.128-37.902 15.994l-0.011 0.012c-9.878 9.621-16.006 23.052-16.006 37.913 0 0.313 0.003 0.625 0.008 0.936l-0.001-0.047v914.34c-0.005 0.264-0.007 0.576-0.007 0.889 0 14.861 6.128 28.292 15.994 37.902l0.012 0.011c9.63 9.939 23.101 16.109 38.013 16.109 0.277 0 0.554-0.002 0.831-0.006l-0.042 0.001h511.993c18.307-0.507 35.518-4.665 51.104-11.769l-0.826 0.337c16.835-6.612 31.262-15.9 43.489-27.487l-0.060 0.057zM585.119 882.306v-214.903h214.903c-2.628 9.048-6.948 16.885-12.636 23.514l0.070-0.084-178.907 178.892c-6.546 5.618-14.382 9.939-22.989 12.455l-0.441 0.111zM804.5 9.172v585.119h-237.662c-0.071 0-0.155-0.001-0.239-0.001-30.167 0-54.621 24.455-54.621 54.621 0 0.084 0 0.168 0.001 0.252v-0.013 237.782h-438.836v-877.776h731.403zM274.271 521.149c2.708 3.911 6.964 6.587 11.863 7.142l0.076 0.007c0.683 0.087 1.473 0.137 2.275 0.137 4.32 0 8.301-1.449 11.485-3.887l-0.045 0.033 29.146-21.714c3.911-2.708 6.587-6.964 7.142-11.863l0.007-0.076c0.087-0.683 0.137-1.473 0.137-2.275 0-4.32-1.449-8.301-3.887-11.485l0.033 0.045-103.989-138.792 103.989-138.792c2.404-3.14 3.853-7.123 3.853-11.444 0-0.8-0.050-1.589-0.146-2.363l0.009 0.092c-0.561-4.975-3.237-9.231-7.093-11.903l-0.055-0.036-29.146-21.714c-3.139-2.405-7.12-3.853-11.44-3.853-0.802 0-1.592 0.050-2.368 0.147l0.093-0.009c-4.975 0.561-9.231 3.237-11.903 7.093l-0.036 0.055-129.076 171.744c-2.487 2.902-4.002 6.703-4.002 10.857s1.514 7.955 4.020 10.88l-0.019-0.023zM732.537 349.152c2.487-2.902 4.002-6.703 4.002-10.857s-1.514-7.955-4.020-10.88l0.019 0.023-129.181-171.997c-2.707-3.913-6.964-6.589-11.863-7.142l-0.076-0.007c-0.683-0.087-1.473-0.137-2.275-0.137-4.32 0-8.301 1.449-11.485 3.887l0.045-0.033-29.161 21.714c-3.911 2.708-6.587 6.964-7.142 11.863l-0.007 0.076c-0.087 0.683-0.137 1.473-0.137 2.275 0 4.32 1.449 8.301 3.887 11.485l-0.033-0.045 103.989 138.792-103.989 138.792c-2.404 3.14-3.853 7.123-3.853 11.444 0 0.8 0.050 1.589 0.146 2.363l-0.009-0.092c0.559 4.976 3.236 9.232 7.093 11.903l0.055 0.036 29.146 21.968c3.139 2.405 7.12 3.853 11.44 3.853 0.802 0 1.592-0.050 2.368-0.147l-0.093 0.009c4.975-0.561 9.231-3.237 11.903-7.093l0.036-0.055zM378.275 85.731c-4.933 0.707-9.106 3.48-11.676 7.398l-0.039 0.063c-2.124 2.977-3.396 6.689-3.396 10.698 0 1.065 0.090 2.11 0.262 3.126l-0.015-0.109 78.858 474.862c0.707 4.933 3.48 9.106 7.398 11.676l0.063 0.039c2.976 2.124 6.687 3.397 10.695 3.397 1.067 0 2.112-0.090 3.13-0.263l-0.109 0.015 35.996-5.716c4.933-0.707 9.106-3.48 11.676-7.398l0.039-0.063c2.124-2.977 3.396-6.689 3.396-10.698 0-1.065-0.090-2.11-0.262-3.126l0.015 0.109-78.902-474.877c-0.707-4.933-3.48-9.106-7.398-11.676l-0.063-0.039c-2.976-2.124-6.687-3.397-10.695-3.397-1.067 0-2.112 0.090-3.13 0.263l0.109-0.015z" />
<glyph unicode="&#xe930;" glyph-name="file-excel" horiz-adv-x="878" d="M838.825 742.873c11.53-12.167 20.818-26.593 27.116-42.528l0.314-0.901c6.767-14.76 10.926-31.972 11.428-50.097l0.004-0.182v-658.291c0-0.071 0.001-0.155 0.001-0.239 0-30.167-24.455-54.621-54.621-54.621-0.084 0-0.168 0-0.252 0.001h-767.968c-0.264-0.005-0.576-0.007-0.889-0.007-14.861 0-28.292 6.128-37.902 15.994l-0.011 0.012c-9.878 9.621-16.006 23.052-16.006 37.913 0 0.313 0.003 0.625 0.008 0.936l-0.001-0.047v914.34c-0.005 0.264-0.007 0.576-0.007 0.889 0 14.861 6.128 28.292 15.994 37.902l0.012 0.011c9.63 9.939 23.101 16.109 38.013 16.109 0.277 0 0.554-0.002 0.831-0.006l-0.042 0.001h511.993c18.307-0.507 35.518-4.665 51.104-11.769l-0.826 0.337c16.835-6.612 31.262-15.9 43.489-27.487l-0.060 0.057zM585.119 882.306v-214.903h214.903c-2.628 9.048-6.948 16.885-12.636 23.514l0.070-0.084-178.907 178.892c-6.546 5.618-14.382 9.939-22.989 12.455l-0.441 0.111zM804.5 9.172v585.119h-237.662c-0.071 0-0.155-0.001-0.239-0.001-30.167 0-54.621 24.455-54.621 54.621 0 0.084 0 0.168 0.001 0.252v-0.013 237.782h-438.836v-877.776h731.403zM245.184 142.874v-60.576h160.506v60.576h-42.846l58.86 92.006c1.915 2.687 3.811 5.773 5.501 8.984l0.215 0.448q2.85 5.432 4.283 7.716t2 2.283h1.149c0.685-2.181 1.655-4.079 2.889-5.772l-0.039 0.056c0.827-1.65 1.68-3.052 2.632-4.379l-0.065 0.096q1.492-2 3.432-4.567t3.716-4.85l61.188-92.006h-43.428v-60.576h166.222v60.561h-38.802l-109.765 156.059 111.421 161.178h38.28v61.188h-159.417v-61.188h42.279l-58.86-90.856q-2.283-4-5.716-9.432t-5.149-7.716l-1.149-1.716h-1.149c-0.684 2.181-1.655 4.079-2.889 5.772l0.039-0.056c-2.859 4.989-6.077 9.3-9.746 13.18l0.030-0.032-60.561 90.856h43.428v61.188h-165.655v-61.188h38.802l107.989-155.432-110.825-161.804h-38.802z" />
<glyph unicode="&#xe931;" glyph-name="file-img" horiz-adv-x="878" d="M838.825 742.873c11.53-12.167 20.818-26.593 27.116-42.528l0.314-0.901c6.767-14.76 10.926-31.972 11.428-50.097l0.004-0.182v-658.291c0-0.071 0.001-0.155 0.001-0.239 0-30.167-24.455-54.621-54.621-54.621-0.084 0-0.168 0-0.252 0.001h-767.968c-0.264-0.005-0.576-0.007-0.889-0.007-14.861 0-28.292 6.128-37.902 15.994l-0.011 0.012c-9.878 9.621-16.006 23.052-16.006 37.913 0 0.313 0.003 0.625 0.008 0.936l-0.001-0.047v914.34c-0.005 0.264-0.007 0.576-0.007 0.889 0 14.861 6.128 28.292 15.994 37.902l0.012 0.011c9.63 9.939 23.101 16.109 38.013 16.109 0.277 0 0.554-0.002 0.831-0.006l-0.042 0.001h511.993c18.307-0.507 35.518-4.665 51.104-11.769l-0.826 0.337c16.835-6.612 31.262-15.9 43.489-27.487l-0.060 0.057zM585.119 882.306v-214.903h214.903c-2.628 9.048-6.948 16.885-12.636 23.514l0.070-0.084-178.907 178.892c-6.546 5.618-14.382 9.939-22.989 12.455l-0.441 0.111zM804.5 9.172v585.119h-237.662c-0.071 0-0.155-0.001-0.239-0.001-30.167 0-54.621 24.455-54.621 54.621 0 0.084 0 0.168 0.001 0.252v-0.013 237.782h-438.836v-877.776h731.403zM731.373 265.175v-182.877h-585.090v109.705l109.705 109.72 73.127-73.127 219.381 219.381zM255.989 374.866c-0.133-0.001-0.291-0.001-0.449-0.001-60.341 0-109.258 48.916-109.258 109.258 0 0.163 0 0.326 0.001 0.489v-0.025c-0.001 0.138-0.001 0.301-0.001 0.464 0 60.341 48.916 109.258 109.258 109.258 0.158 0 0.315 0 0.473-0.001h-0.024c0.133 0.001 0.291 0.001 0.449 0.001 60.341 0 109.258-48.916 109.258-109.258 0-0.163 0-0.326-0.001-0.489v0.025c0.001-0.138 0.001-0.301 0.001-0.464 0-60.341-48.916-109.258-109.258-109.258-0.158 0-0.315 0-0.473 0.001h0.024z" />
<glyph unicode="&#xe932;" glyph-name="file-video" horiz-adv-x="878" d="M838.825 742.873c11.53-12.167 20.818-26.593 27.116-42.528l0.314-0.901c6.767-14.76 10.926-31.972 11.428-50.097l0.004-0.182v-658.291c0-0.071 0.001-0.155 0.001-0.239 0-30.167-24.455-54.621-54.621-54.621-0.084 0-0.168 0-0.252 0.001h-767.968c-0.264-0.005-0.576-0.007-0.889-0.007-14.861 0-28.292 6.128-37.902 15.994l-0.011 0.012c-9.878 9.621-16.006 23.052-16.006 37.913 0 0.313 0.003 0.625 0.008 0.936l-0.001-0.047v914.34c-0.005 0.264-0.007 0.576-0.007 0.889 0 14.861 6.128 28.292 15.994 37.902l0.012 0.011c9.63 9.939 23.101 16.109 38.013 16.109 0.277 0 0.554-0.002 0.831-0.006l-0.042 0.001h511.993c18.307-0.507 35.518-4.665 51.104-11.769l-0.826 0.337c16.835-6.612 31.262-15.9 43.489-27.487l-0.060 0.057zM585.119 882.306v-214.903h214.903c-2.628 9.048-6.948 16.885-12.636 23.514l0.070-0.084-178.907 178.892c-6.546 5.618-14.382 9.939-22.989 12.455l-0.441 0.111zM804.5 9.172v585.119h-237.662c-0.071 0-0.155-0.001-0.239-0.001-30.167 0-54.621 24.455-54.621 54.621 0 0.084 0 0.168 0.001 0.252v-0.013 237.782h-438.836v-877.776h731.403zM438.836 521.149c40.155-0.571 72.555-32.972 73.126-73.073l0.001-0.054v-219.381c-0.571-40.155-32.972-72.555-73.073-73.126l-0.054-0.001h-219.381c-40.155 0.571-72.555 32.972-73.126 73.073l-0.001 0.054v219.381c0.571 40.155 32.972 72.555 73.073 73.126l0.054 0.001zM719.971 520c6.728-2.35 11.468-8.642 11.468-16.041 0-0.389-0.013-0.775-0.039-1.158l0.003 0.052v-329.131c0.023-0.328 0.035-0.71 0.035-1.096 0-7.402-4.739-13.696-11.348-16.016l-0.119-0.036c-2.015-0.598-4.355-1.009-6.768-1.145l-0.082-0.004c-0.183-0.007-0.398-0.011-0.614-0.011-4.889 0-9.318 1.97-12.535 5.161l0.001-0.001-151.432 152.014v51.428l151.432 151.999c3.214 3.189 7.641 5.16 12.528 5.16 0.218 0 0.435-0.004 0.651-0.012l-0.031 0.001c2.495-0.14 4.835-0.551 7.071-1.204l-0.221 0.055z" />
<glyph unicode="&#xe933;" glyph-name="file-music" horiz-adv-x="896" d="M853.779 730.919c-27.795 36.698-56.365 69.224-87.092 99.569l-0.093 0.092c-30.45 30.818-62.99 59.388-97.458 85.549l-2.248 1.636c-51.577 37.817-76.589 42.19-90.916 42.19h-495.979c-44.137-0.068-79.901-35.826-79.977-79.955v-863.993c0.042-44.164 35.829-79.956 79.987-80.007h735.96c44.16 0.059 79.941 35.846 79.992 80.002v624.001c0 14.327-4.373 39.354-42.19 90.931zM721.344 785.376c25.366-25.086 49.132-51.629 71.226-79.554l1.394-1.826h-153.984v153.954c29.749-23.475 56.286-47.226 81.29-72.498l0.075-0.076zM831.96 16.007c-0.124-8.785-7.213-15.874-15.987-15.998h-735.982c-8.785 0.124-15.874 7.213-15.998 15.987v863.998c0.116 8.792 7.208 15.889 15.987 16.013h495.991v-224.007c0-17.671 14.325-31.997 31.997-31.997h223.992zM692.258 568.741c-5.472 4.513-12.555 7.25-20.278 7.25-2.225 0-4.397-0.227-6.494-0.66l0.207 0.036-319.982-63.993c-14.762-3.027-25.71-15.902-25.729-31.338v-236.903c-18.625 8.143-40.329 12.882-63.139 12.882-0.301 0-0.601-0.001-0.901-0.002h0.046c-70.694 0-128.002-42.981-128.002-96.005s57.308-96.005 128.002-96.005 128.002 42.981 128.002 96.005v229.827l255.989 51.204v-133.837c-18.625 8.143-40.329 12.882-63.139 12.882-0.301 0-0.601-0.001-0.901-0.002h0.046c-70.694 0-128.002-42.981-128.002-96.005s57.308-96.005 128.002-96.005 128.002 42.981 128.002 96.005v319.967c-0.004 9.946-4.542 18.831-11.661 24.7l-0.055 0.044z" />
<glyph unicode="&#xe934;" glyph-name="file-open-office" horiz-adv-x="896" d="M626.19 488.317c-60.665 28.654-137.971 34.414-194.831-6.044 69.142 6.611 144.955-4.835 195.099-57.128 47.995 55.084 124.107 65.411 192.95 59.695-57.472 38.19-133.21 33.056-193.219 3.477zM601.625 354.256c-71.476-0.426-137.631-22.849-192.135-60.83l1.109 0.732c-107.168 45.592-242.722 37.131-333.996-38.981 26.326 0.94 52.010 7.462 78.052 10.79 95.184 9.492 196.577-14.148 268.495-79.828 30.065 43.329 70.519 77.475 117.843 99.247l1.802 0.743c63.068 30.519 134.15 33.683 202.815 34.519-41.682 28.654-94.617 33.952-143.926 33.683zM853.838 730.934c-27.811 36.689-56.399 69.209-87.145 99.549l-0.099 0.098c-30.45 30.818-62.99 59.388-97.458 85.549l-2.248 1.636c-51.577 37.817-76.589 42.19-90.916 42.19h-495.979c-44.137-0.068-79.901-35.826-79.977-79.955v-863.993c0.042-44.164 35.829-79.956 79.987-80.007h735.96c44.16 0.059 79.941 35.846 79.992 80.002v624.001c0 14.327-4.373 39.354-42.19 90.931zM721.404 785.391c25.34-25.086 49.086-51.632 71.162-79.561l1.398-1.834h-153.984v153.954c29.749-23.475 56.286-47.226 81.29-72.498l0.075-0.076zM832.020 16.022c-0.124-8.785-7.213-15.874-15.987-15.998h-736.041c-8.785 0.124-15.874 7.213-15.998 15.987v863.984c0.116 8.792 7.208 15.889 15.987 16.013h495.991v-224.007c0-17.671 14.325-31.997 31.997-31.997h223.992z" />
<glyph unicode="&#xe935;" glyph-name="file-pdf" horiz-adv-x="878" d="M838.825 742.873c11.53-12.167 20.818-26.593 27.116-42.528l0.314-0.901c6.767-14.76 10.926-31.972 11.428-50.097l0.004-0.182v-658.291c0-0.071 0.001-0.155 0.001-0.239 0-30.167-24.455-54.621-54.621-54.621-0.084 0-0.168 0-0.252 0.001h-767.968c-0.264-0.005-0.576-0.007-0.889-0.007-14.861 0-28.292 6.128-37.902 15.994l-0.011 0.012c-9.878 9.621-16.006 23.052-16.006 37.913 0 0.313 0.003 0.625 0.008 0.936l-0.001-0.047v914.34c-0.005 0.264-0.007 0.576-0.007 0.889 0 14.861 6.128 28.292 15.994 37.902l0.012 0.011c9.63 9.939 23.101 16.109 38.013 16.109 0.277 0 0.554-0.002 0.831-0.006l-0.042 0.001h511.993c18.307-0.507 35.518-4.665 51.104-11.769l-0.826 0.337c16.835-6.612 31.262-15.9 43.489-27.487l-0.060 0.057zM585.119 882.306v-214.903h214.903c-2.628 9.048-6.948 16.885-12.636 23.514l0.070-0.084-178.907 178.892c-6.546 5.618-14.382 9.939-22.989 12.455l-0.441 0.111zM804.5 9.172v585.119h-237.662c-0.071 0-0.155-0.001-0.239-0.001-30.167 0-54.621 24.455-54.621 54.621 0 0.084 0 0.168 0.001 0.252v-0.013 237.782h-438.836v-877.776h731.403zM510.828 348.003c13.901-10.773 29.575-21.347 45.928-30.884l2.067-1.113c20.056 2.531 43.279 3.984 66.838 4h0.021q83.991 0 101.139-27.997c3.088-4.397 4.934-9.861 4.934-15.756 0-5.144-1.406-9.96-3.855-14.084l0.070 0.127c-0.029-0.46-0.242-0.866-0.565-1.147l-1.151-1.151v-0.567q-3.432-21.714-40.563-21.714c-23.702 0.744-46.181 4.87-67.329 11.912l1.664-0.48c-28.616 8.653-53.226 18.939-76.517 31.373l2.241-1.092c-82.902-8.249-158.88-24.991-231.24-49.565l7.248 2.137q-87.424-149.716-138.284-149.716c-0.057 0-0.123-0.001-0.19-0.001-5.792 0-11.239 1.482-15.98 4.087l0.172-0.087-13.715 6.85q-0.567 0.567-3.432 2.85c-2.77 3.82-4.431 8.601-4.431 13.77 0 2.423 0.365 4.762 1.043 6.962l-0.044-0.167c6.49 20.572 17.521 38.135 31.969 52.207l0.027 0.026c21.364 22.036 46.277 40.472 73.848 54.42l1.577 0.724c1.437 1.208 3.309 1.942 5.351 1.942 3.541 0 6.566-2.206 7.777-5.318l0.019-0.057c0.654-0.561 1.085-1.366 1.149-2.273l0.001-0.010q29.713 48.577 61.188 112.571c22.085 42.258 42.287 91.89 57.83 143.541l1.596 6.175c-8.218 26.436-14.382 57.417-17.298 89.337l-0.133 1.803c-0.918 7.583-1.441 16.363-1.441 25.265 0 16.864 1.879 33.29 5.439 49.078l-0.281-1.485q6.283 22.863 23.998 22.863h12.566c0.46 0.031 0.996 0.049 1.537 0.049 7.396 0 14.013-3.333 18.431-8.579l0.030-0.036c4.603-7.007 7.342-15.596 7.342-24.824 0-4.995-0.802-9.802-2.285-14.3l0.092 0.322c-0.468-1.753-1.255-3.281-2.302-4.591l0.019 0.025c0.365-1.228 0.574-2.64 0.574-4.101 0-0.164-0.003-0.327-0.008-0.49l0.001 0.024v-17.148c-0.006-38.722-2.952-76.751-8.627-113.882l0.523 4.162q31.43-93.707 83.424-136.001zM181.698 113.161q29.713 13.715 78.291 90.289c-18.601-14.472-34.984-30.221-49.598-47.513l-0.397-0.482c-10.87-12.248-20.302-26.153-27.799-41.192l-0.497-1.102zM409.122 638.869c-3.070-12.083-4.833-25.954-4.833-40.237 0-12.462 1.342-24.611 3.888-36.31l-0.205 1.122q0.567 4 4 25.147 0 1.716 4 24.565c0.481 1.751 1.267 3.277 2.304 4.594l-0.021-0.027c-0.327 0.283-0.54 0.689-0.567 1.145v0.005c0.006 0.046 0.010 0.099 0.010 0.152 0 0.297-0.111 0.568-0.295 0.774l0.001-0.001c-0.178 0.201-0.287 0.468-0.287 0.76 0 0.032 0.001 0.064 0.004 0.095v-0.004c-0.068 7.841-2.874 15.013-7.506 20.621l0.045-0.056c-0.029-0.46-0.242-0.866-0.565-1.147l-0.002-0.002v-1.149zM338.264 261.146c46.254 19.062 100.704 35.096 157.133 45.477l5.149 0.786c-2.852 1.86-5.284 3.647-7.615 5.554l0.153-0.122c-3.365 2.548-6.338 5.085-9.156 7.781l0.038-0.036c-30.269 27.68-54.749 61.128-71.788 98.672l-0.772 1.9c-14.622-43.975-30.665-81.185-49.432-116.734l2.004 4.164q-17.133-32.042-25.714-47.443zM707.391 270.294q-13.715 13.715-79.992 13.715c20.834-8.836 44.989-14.583 70.304-15.974l0.555-0.024c0.627-0.025 1.363-0.040 2.102-0.040 2.887 0 5.722 0.221 8.49 0.646l-0.309-0.039q0 0.567-1.149 1.716z" />
<glyph unicode="&#xe936;" glyph-name="file-ppt" horiz-adv-x="878" d="M838.825 742.873c11.53-12.167 20.818-26.593 27.116-42.528l0.314-0.901c6.767-14.76 10.926-31.972 11.428-50.097l0.004-0.182v-658.291c0-0.071 0.001-0.155 0.001-0.239 0-30.167-24.455-54.621-54.621-54.621-0.084 0-0.168 0-0.252 0.001h-767.968c-0.264-0.005-0.576-0.007-0.889-0.007-14.861 0-28.292 6.128-37.902 15.994l-0.011 0.012c-9.878 9.621-16.006 23.052-16.006 37.913 0 0.313 0.003 0.625 0.008 0.936l-0.001-0.047v914.34c-0.005 0.264-0.007 0.576-0.007 0.889 0 14.861 6.128 28.292 15.994 37.902l0.012 0.011c9.63 9.939 23.101 16.109 38.013 16.109 0.277 0 0.554-0.002 0.831-0.006l-0.042 0.001h511.993c18.307-0.507 35.518-4.665 51.104-11.769l-0.826 0.337c16.835-6.612 31.262-15.9 43.489-27.487l-0.060 0.057zM585.119 882.306v-214.903h214.903c-2.628 9.048-6.948 16.885-12.636 23.514l0.070-0.084-178.907 178.892c-6.546 5.618-14.382 9.939-22.989 12.455l-0.441 0.111zM804.5 9.172v585.119h-237.662c-0.071 0-0.155-0.001-0.239-0.001-30.167 0-54.621 24.455-54.621 54.621 0 0.084 0 0.168 0.001 0.252v-0.013 237.782h-438.836v-877.776h731.403zM237.722 142.874v-60.576h186.847v60.576h-53.159v95.423h78.231c2.32-0.092 5.044-0.145 7.78-0.145 21.268 0 41.792 3.184 61.123 9.1l-1.477-0.389c26 9.096 47.134 26.601 60.632 49.193l0.287 0.518c14.184 23.010 22.588 50.894 22.588 80.74 0 0.944-0.008 1.886-0.025 2.825l0.002-0.141c0.028 1.077 0.044 2.346 0.044 3.618 0 28.41-7.878 54.98-21.568 77.645l0.378-0.674c-13.425 22.090-33.003 39.274-56.351 49.405l-0.793 0.306c-19.84 6.969-42.716 10.995-66.532 10.995-2.723 0-5.434-0.053-8.132-0.157l0.388 0.012h-210.262v-61.188h52.562v-317.102h-52.562zM439.403 302.873h-67.993v153.134h68.575c1.322 0.066 2.871 0.104 4.429 0.104 15.7 0 30.503-3.841 43.52-10.634l-0.521 0.247q31.997-18.864 31.997-65.665 0-50.86-35.429-68.575c-12.094-5.45-26.218-8.626-41.084-8.626-1.223 0-2.442 0.022-3.655 0.064l0.176-0.005z" />
<glyph unicode="&#xe937;" glyph-name="file-text" horiz-adv-x="896" d="M853.779 730.919c-27.796 36.697-56.365 69.223-87.092 99.569l-0.094 0.092c-30.45 30.818-62.99 59.388-97.458 85.549l-2.248 1.636c-51.577 37.817-76.589 42.19-90.916 42.19h-495.979c-44.137-0.068-79.901-35.826-79.977-79.955v-863.993c0.051-44.161 35.832-79.947 79.986-80.007h735.961c44.16 0.059 79.941 35.846 79.992 80.002v624.001c0 14.327-4.373 39.354-42.19 90.931zM721.344 785.376c25.366-25.086 49.132-51.629 71.226-79.554l1.394-1.826h-153.984v153.954c29.749-23.474 56.286-47.226 81.289-72.498l0.076-0.077zM831.96 16.007c-0.124-8.785-7.213-15.874-15.987-15.998h-735.982c-8.785 0.124-15.874 7.213-15.998 15.987v863.998c0.116 8.792 7.208 15.889 15.987 16.013h495.991v-224.007c0-17.671 14.325-31.997 31.997-31.997h223.992zM671.961 127.936h-447.969c-17.671 0-31.997 14.325-31.997 31.997s14.325 31.997 31.997 31.997h447.984c17.671 0 31.997-14.325 31.997-31.997s-14.325-31.997-31.997-31.997v0zM671.961 255.938h-447.969c-17.671 0-31.997 14.325-31.997 31.997s14.325 31.997 31.997 31.997h447.984c17.671 0 31.997-14.325 31.997-31.997s-14.325-31.997-31.997-31.997v0zM671.961 383.939h-447.969c-17.671 0-31.997 14.325-31.997 31.997s14.325 31.997 31.997 31.997h447.984c17.671 0 31.997-14.325 31.997-31.997s-14.325-31.997-31.997-31.997v0z" />
<glyph unicode="&#xe938;" glyph-name="file-word" horiz-adv-x="878" d="M838.825 742.873c11.53-12.167 20.818-26.593 27.116-42.528l0.314-0.901c6.767-14.76 10.926-31.972 11.428-50.097l0.004-0.182v-658.291c0-0.071 0.001-0.155 0.001-0.239 0-30.167-24.455-54.621-54.621-54.621-0.084 0-0.168 0-0.252 0.001h-767.968c-0.264-0.005-0.576-0.007-0.889-0.007-14.861 0-28.292 6.128-37.902 15.994l-0.011 0.012c-9.878 9.621-16.006 23.052-16.006 37.913 0 0.313 0.003 0.625 0.008 0.936l-0.001-0.047v914.34c-0.005 0.264-0.007 0.576-0.007 0.889 0 14.861 6.128 28.292 15.994 37.902l0.012 0.011c9.63 9.939 23.101 16.109 38.013 16.109 0.277 0 0.554-0.002 0.831-0.006l-0.042 0.001h511.993c18.307-0.507 35.518-4.665 51.104-11.769l-0.826 0.337c16.835-6.612 31.262-15.9 43.489-27.487l-0.060 0.057zM585.119 882.306v-214.903h214.903c-2.628 9.048-6.948 16.885-12.636 23.514l0.070-0.084-178.907 178.892c-6.546 5.618-14.382 9.939-22.989 12.455l-0.441 0.111zM804.5 9.172v585.119h-237.662c-0.071 0-0.155-0.001-0.239-0.001-30.167 0-54.621 24.455-54.621 54.621 0 0.084 0 0.168 0.001 0.252v-0.013 237.782h-438.836v-877.776h731.403zM133.136 521.149v-61.188h39.996l93.707-377.708h90.856l73.127 277.136c3.81 11.845 6.274 25.526 6.84 39.695l0.010 0.301h2.283l1.716-13.715c0.748-3.055 1.45-6.939 1.944-10.887l0.056-0.545c0.722-5.649 1.825-10.699 3.322-15.578l-0.173 0.654 73.127-277.136h90.871l93.722 377.827h39.996v61.188h-171.415v-61.188h51.428l-56.576-250.288c-1.907-7.604-3.328-16.584-3.971-25.778l-0.028-0.503-1.149-11.939h-2.283l-1.716 11.939q-0.567 2.85-2.283 11.939t-2.85 14.282l-82.29 311.491h-65.128l-82.29-311.431q-1.149-5.149-2.567-13.999t-2-12.282l-2.283-11.939h-2.283l-1.149 11.939c-0.671 9.697-2.093 18.676-4.227 27.376l0.227-1.095-56.561 250.288h51.428v61.188h-171.43z" />
<glyph unicode="&#xe939;" glyph-name="file-zip" horiz-adv-x="896" d="M853.779 730.919c-27.795 36.698-56.365 69.224-87.092 99.57l-0.093 0.092c-30.45 30.818-62.99 59.388-97.458 85.549l-2.248 1.636c-51.577 37.817-76.589 42.19-90.916 42.19h-495.979c-44.137-0.068-79.901-35.826-79.977-79.955v-863.993c0.042-44.164 35.829-79.956 79.987-80.007h735.96c44.16 0.059 79.941 35.846 79.992 80.002v624.001c0 14.327-4.373 39.354-42.19 90.931zM721.344 785.376c25.366-25.086 49.132-51.629 71.226-79.554l1.394-1.826h-153.984v153.954c29.748-23.475 56.285-47.226 81.289-72.498l0.076-0.077zM831.96 16.007c-0.124-8.785-7.213-15.874-15.987-15.998h-735.982c-8.785 0.124-15.874 7.213-15.998 15.987v863.998c0.116 8.792 7.208 15.889 15.987 16.013h495.991v-224.007c0-17.671 14.325-31.997 31.997-31.997h223.992zM191.995 896.007h127.987v-63.934h-127.987zM319.982 832.073h128.002v-63.993h-128.002zM191.98 768.079h128.002v-63.993h-127.987v63.919zM319.982 704.086h128.002v-64.083h-128.002zM191.995 640.003h127.987v-63.993h-127.987zM319.997 576.009h128.002v-63.993h-128.017zM191.995 512.016h127.987v-63.993h-127.987v63.979zM319.997 448.022h128.002v-63.993h-128.017zM191.995 111.997c0.085-26.473 21.522-47.911 47.987-47.995h159.992c26.473 0.085 47.911 21.522 47.995 47.987v160.007c-0.076 26.479-21.517 47.925-47.987 48.010h-80v63.993h-127.987v-272.002zM383.991 192.004v-63.993h-128.002v63.993z" />
<glyph unicode="&#xe93a;" glyph-name="file-default" horiz-adv-x="896" d="M853.798 730.926c-27.792 36.698-56.356 69.222-87.076 99.569l-0.091 0.090c-30.448 30.816-62.987 59.385-97.454 85.546l-2.25 1.637c-51.575 37.861-76.602 42.233-90.869 42.233h-496.069c-44.152-0.068-79.924-35.85-79.975-80v-864.071c0.051-44.165 35.84-79.954 80-80.004h735.983c44.165 0.051 79.954 35.84 80.004 80v624.072c0 14.326-4.373 39.353-42.188 90.928zM721.368 785.366c25.346-25.079 49.097-51.615 71.177-79.533l1.396-1.829h-153.95v153.935c29.755-23.474 56.296-47.225 81.303-72.497l0.074-0.075zM831.995 16.004c-0.124-8.785-7.213-15.874-15.986-15.998h-736.020c-8.785 0.124-15.874 7.213-15.998 15.986v864.003c0.124 8.785 7.213 15.874 15.986 15.998h496.081v-224c0-17.671 14.325-31.996 31.996-31.996v0h223.941z" />
<glyph unicode="&#xe93b;" glyph-name="trash" horiz-adv-x="896" d="M863.986 896.009h-239.984l-18.816 37.334c-8.037 15.925-24.266 26.657-43.001 26.657-0.003 0-0.006 0-0.008 0h-228.559c-0.057 0-0.125 0-0.192 0-18.603 0-34.704-10.713-42.469-26.307l-0.124-0.275-18.816-37.334h-239.984c0 0 0 0 0 0-17.691 0-32.033-14.342-32.033-32.033 0-0.026 0-0.052 0-0.079v0.004-63.991c0-17.691 14.342-32.033 32.033-32.033h831.953c17.691 0 32.033 14.342 32.033 32.033v0 63.991c0 17.691-14.342 32.033-32.033 32.033v0zM106.402 25.975c3.275-50.353 44.909-89.957 95.797-89.975h491.617c50.89 0.018 92.525 39.622 95.784 89.69l0.015 0.285 42.412 678.062h-768.037z" />
<glyph unicode="&#xe93c;" glyph-name="check" d="M341.845 258.901l-226.702 226.759-97.337-97.337 324.267-324.267 668.046 668.388-97.337 97.337z" />
<glyph unicode="&#xe93d;" glyph-name="cout" horiz-adv-x="989" d="M923.705 960h-655.024c-0.022 0-0.048 0-0.074 0-10.981 0-21.325-2.725-30.394-7.535l0.352 0.17c77.721-24.264 135.62-89.521 148.872-169.834l0.17-1.245h475.372c20.924-0.093 37.858-17.046 37.92-37.969v-90.629c-0.062-20.917-17.002-37.858-37.914-37.92h-519.617c-34.016-42.341-83.227-71.266-139.237-78.475l-1.066-0.112v-534.779c0 0 0 0 0-0.001 0-36.325 29.369-65.791 65.658-65.947h654.984c36.422 0 65.948 29.526 65.948 65.948v0 892.655c-0.156 36.303-29.622 65.673-65.947 65.673 0 0 0 0-0.001 0v0zM467.568 56.189c-0.031-9.761-7.935-17.665-17.693-17.696h-70.677c-9.737 0.062-17.61 7.954-17.641 17.693v70.677c0.031 9.741 7.904 17.634 17.635 17.696h70.68c9.761-0.031 17.665-7.935 17.696-17.693v-0.003zM467.568 233.588c-0.031-9.761-7.935-17.665-17.693-17.696h-70.677c-9.737 0.062-17.61 7.954-17.641 17.693v70.677c0.031 9.73 7.911 17.61 17.638 17.641h70.677c0 0 0 0 0 0 9.754 0 17.665-7.891 17.696-17.638v-0.003zM467.568 410.987c-0.031-9.761-7.935-17.665-17.693-17.696h-70.677c-9.737 0.062-17.61 7.954-17.641 17.693v70.677c0.031 9.73 7.911 17.61 17.638 17.641h70.677c0 0 0 0 0 0 9.754 0 17.665-7.891 17.696-17.638v-0.003zM648.924 56.189c-0.031-9.761-7.935-17.665-17.693-17.696h-70.237c-9.737 0.062-17.61 7.954-17.641 17.693v70.677c0.031 9.741 7.904 17.634 17.635 17.696h70.68c9.761-0.031 17.665-7.935 17.696-17.693v-0.003zM648.924 233.588c-0.031-9.761-7.935-17.665-17.693-17.696h-70.237c-9.737 0.062-17.61 7.954-17.641 17.693v70.677c0.031 9.73 7.911 17.61 17.638 17.641h70.677c0 0 0 0 0 0 9.754 0 17.665-7.891 17.696-17.638v-0.003zM648.924 410.987c-0.031-9.761-7.935-17.665-17.693-17.696h-70.237c-9.737 0.062-17.61 7.954-17.641 17.693v70.677c0.031 9.73 7.911 17.61 17.638 17.641h70.677c0 0 0 0 0 0 9.754 0 17.665-7.891 17.696-17.638v-0.003zM830.279 67.675c-0.031-16.074-13.053-29.096-29.124-29.127h-47.76c-16.074 0.031-29.096 13.053-29.127 29.124v225.324c0.062 16.050 13.072 29.041 29.124 29.072h47.76c16.054-0.031 29.064-13.022 29.127-29.066v-0.006zM830.279 410.987c-0.031-9.741-7.904-17.634-17.635-17.696h-70.295c-9.761 0.031-17.665 7.935-17.696 17.693v70.677c0.031 9.75 7.942 17.641 17.696 17.641 0 0 0 0 0 0h70.674c9.73-0.031 17.61-7.911 17.641-17.638v-0.003zM303.468 625.261c30.862 31.775 49.89 75.189 49.89 123.047 0 97.58-79.104 176.684-176.684 176.684s-176.684-79.104-176.684-176.684c0-97.58 79.104-176.684 176.684-176.684 0.004 0 0.007 0 0.011 0h-0.001c0.062 0 0.136 0 0.21 0 9.215 0 18.266 0.699 27.104 2.048l-0.99-0.124c39.747 6.122 74.336 24.749 100.415 51.667l0.045 0.046zM195.095 688.186c0-10.168-8.243-18.41-18.41-18.41s-18.41 8.243-18.41 18.41v0 41.162h-41.162c-0.3-0.018-0.652-0.027-1.005-0.027-10.168 0-18.41 8.243-18.41 18.41s8.243 18.41 18.41 18.41c0.354 0 0.705-0.010 1.054-0.030l-0.048 0.002h41.162v41.437c0 10.168 8.243 18.41 18.41 18.41s18.41-8.243 18.41-18.41v0-41.162h41.162c0.3 0.018 0.652 0.027 1.005 0.027 10.168 0 18.41-8.243 18.41-18.41s-8.243-18.41-18.41-18.41c-0.354 0-0.705 0.010-1.054 0.030l0.048-0.002h-41.162z" />
<glyph unicode="&#xe93e;" glyph-name="pdf" horiz-adv-x="768" d="M363.776 448c-5.046 16.411-7.951 35.277-7.951 54.82 0 13.809 1.45 27.278 4.207 40.265l-0.224-1.262c16.768-0.192 15.168-74.048 3.968-93.824zM360.384 353.408c-18.114-49.214-37.232-90.548-59.172-130.1l2.404 4.724c35.393 16.566 77.284 31.548 120.722 42.668l5.102 1.108c-28.235 22.083-51.387 49.239-68.379 80.252l-0.677 1.348zM172.16 103.808c0-1.6 26.368 10.816 69.824 80.384-28.082-22.035-51.375-48.715-69.052-79.067l-0.708-1.317zM496 640h272v-656c0-0.038 0-0.083 0-0.128 0-26.439-21.433-47.872-47.872-47.872-0.045 0-0.090 0-0.135 0h-671.993c-0.038 0-0.083 0-0.128 0-26.439 0-47.872 21.433-47.872 47.872 0 0.045 0 0.090 0 0.135v-0.007 928c0 0.038 0 0.083 0 0.128 0 26.439 21.433 47.872 47.872 47.872 0.045 0 0.090 0 0.135 0h399.993v-272c0.073-26.48 21.52-47.927 47.993-48h0.007zM480 296.384c-39.828 24.747-69.881 61.991-84.957 106.171l-0.419 1.413c9.405 27.2 14.836 58.546 14.836 91.161 0 13.125-0.879 26.044-2.583 38.702l0.163-1.478c-3.321 24.746-24.301 43.628-49.691 43.628-20.423 0-37.992-12.217-45.798-29.741l-0.127-0.319c-1.788-12.958-2.808-27.932-2.808-43.143 0-39.73 6.962-77.834 19.732-113.158l-0.732 2.318c-29.161-70.205-56.509-126.611-86.506-181.359l4.906 9.775s0 0-0.384 0c-54.208-27.776-147.2-89.024-108.8-136 10.687-11.774 25.745-19.415 42.592-20.345l0.16-0.007c35.776 0 71.424 35.968 122.176 123.584 43.268 16.913 96.118 32.884 150.427 44.98l7.589 1.42c36.844-21.383 80.447-35.403 126.983-38.914l1.017-0.062c0.439-0.013 0.955-0.021 1.474-0.021 28.595 0 51.776 23.181 51.776 51.776 0 13.619-5.258 26.010-13.855 35.253l0.029-0.032c-27.776 27.2-108.8 19.392-147.2 14.4zM753.984 749.952l-195.968 196.032c-8.672 8.66-20.647 14.016-33.872 14.016-0.039 0-0.079 0-0.118 0h-12.026v-256h256v12.224c-0.015 13.197-5.368 25.142-14.016 33.792v0zM605.824 239.424c8.192 5.376-4.992 23.808-85.632 17.984 74.176-31.616 85.632-17.984 85.632-17.984z" />
<glyph unicode="&#xe93f;" glyph-name="excel" horiz-adv-x="1043" d="M1023.616 834.688h-349.44v-64.896h102.976v-102.4h-102.976v-32h102.976v-102.4h-102.976v-33.536h102.976v-97.152h-102.976v-38.784h102.976v-97.088h-102.976v-38.784h102.976v-97.856h-102.976v-71.232h349.44c5.504 1.664 10.112 8.192 13.824 19.2 3.071 8.153 5.090 17.582 5.622 27.407l0.010 0.241v717.44c0 5.568-1.92 8.896-5.632 10.112-3.831 1.104-8.23 1.739-12.779 1.739-0.368 0-0.734-0.004-1.1-0.012l0.054 0.001zM978.304 129.792h-167.68v97.792h167.616v-97.792zM978.304 266.176h-167.68v97.344h167.616zM978.304 402.112h-167.68v96.64h167.616v-96.512zM978.304 532.48h-167.68v102.4h167.616v-102.4zM978.304 668.032h-167.68v101.76h167.616v-101.504zM0 850.816v-808.384l615.36-106.432v1024l-615.36-109.568zM364.8 239.296q-3.52 9.536-32.96 80.96c-19.2 47.616-31.296 75.328-34.752 83.2h-1.088l-65.984-157.056-88.192 5.952 104.576 195.584-96 195.584 90.176 4.672 59.456-152.96h1.152l67.136 160 92.992 5.76-110.72-211.584 114.112-215.936-99.904 5.888z" />
<glyph unicode="&#xe940;" glyph-name="nope" d="M512 960c-282.77 0-512-229.23-512-512s229.23-512 512-512c282.77 0 512 229.23 512 512v0c0 282.77-229.23 512-512 512v0zM512 38.4c-226.216 0-409.6 183.384-409.6 409.6v0c0 0.149 0 0.327 0 0.504 0 94.881 32.586 182.15 87.178 251.228l-0.65-0.852 573.952-573.952c-68.225-53.942-155.495-86.528-250.376-86.528-0.177 0-0.354 0-0.531 0h0.027zM835.072 197.12l-573.952 573.952c68.225 53.942 155.495 86.528 250.376 86.528 0.177 0 0.354 0 0.531 0h-0.027c226.216 0 409.6-183.384 409.6-409.6v0c0-0.149 0-0.327 0-0.504 0-94.881-32.586-182.15-87.178-251.228l0.65 0.852z" />
<glyph unicode="&#xe941;" glyph-name="search" d="M438.72 91.008c0.055 0 0.121 0 0.186 0 99.639 0 191.308 34.122 263.96 91.317l-0.914-0.693 235.968-236.096 76.032 76.096-236.032 235.968c56.021 71.797 89.823 163.311 89.823 262.72 0 236.996-192.124 429.12-429.12 429.12s-429.12-192.124-429.12-429.12c0-236.996 192.124-429.12 429.12-429.12 0.034 0 0.068 0 0.102 0h-0.005zM438.72 842.88c0.057 0 0.125 0 0.192 0 177.968 0 322.24-144.272 322.24-322.24s-144.272-322.24-322.24-322.24c-177.968 0-322.24 144.272-322.24 322.24 0 0.068 0 0.135 0 0.203v-0.011c0.291 177.745 144.303 321.757 322.021 322.048h0.027z" />
<glyph unicode="&#xe942;" glyph-name="arrow-left-double" d="M605.699 789.491l-118.221 118.221-477.344-477.344 477.344-477.344 118.221 117.816-359.123 359.123zM905.643 907.712l-477.344-477.344 477.344-477.344 118.357 117.816-359.123 359.123 359.123 359.123z" />
<glyph unicode="&#xe943;" glyph-name="info-cercle" d="M511.587 960c-282.998-0.001-512.413-229.416-512.413-512.413s229.415-512.413 512.413-512.413c282.998 0 512.413 229.415 512.413 512.413 0 0.291 0 0.581-0.001 0.871v-0.045c0 0.050 0 0.108 0 0.166 0 282.45-228.971 511.421-511.421 511.421-0.349 0-0.697 0-1.046-0.001h0.054zM511.587 8.73c-242.425 0.235-438.857 196.813-438.857 439.27 0 0.146 0 0.291 0 0.437v-0.023c-0.002 0.472-0.003 1.031-0.003 1.59 0 120.636 49.316 229.753 128.886 308.292l0.046 0.046c79.461 79.455 189.233 128.599 310.482 128.599 242.511 0 439.105-196.594 439.105-439.105s-196.594-439.105-439.105-439.105c-0.195 0-0.39 0-0.585 0h0.030zM475.222 484.778v-284.307h72.73v284.307zM475.222 695.529v-71.903h72.73v71.903z" />
<glyph unicode="&#xe944;" glyph-name="arrow-right-double" d="M418.301 106.509l118.221-118.221 477.344 477.344-477.344 477.344-118.221-117.816 359.123-359.123zM118.357-11.712l477.344 477.344-477.344 477.344-118.357-117.816 359.123-359.123-359.123-359.123z" />
<glyph unicode="&#xe946;" glyph-name="zoom-plus" d="M438.955 90.965c0.092 0 0.2 0 0.309 0 99.496 0 191.037 34.056 263.603 91.147l-0.915-0.694 236.117-236.117 75.947 75.947-235.861 236.288c55.947 71.771 89.702 163.229 89.702 262.571 0 237.008-192.133 429.141-429.141 429.141s-429.141-192.133-429.141-429.141c0-237.008 192.133-429.141 429.141-429.141 0.084 0 0.168 0 0.252 0h-0.013zM438.955 842.837c177.956 0 322.219-144.262 322.219-322.219s-144.262-322.219-322.219-322.219c-177.956 0-322.219 144.262-322.219 322.219v0c0.194 177.878 144.34 322.024 322.2 322.219h0.019zM607.744 483.072h-322.645c-0.102-0.001-0.222-0.002-0.343-0.002-17.507 0-31.721 14.096-31.913 31.557v0.018c0.192 17.479 14.406 31.575 31.913 31.575 0.121 0 0.241-0.001 0.362-0.002h322.627c0.102 0.001 0.222 0.002 0.343 0.002 17.507 0 31.721-14.096 31.913-31.557v-0.018c-0.192-17.479-14.406-31.575-31.913-31.575-0.121 0-0.241 0.001-0.362 0.002h0.018zM446.464 325.291c-0.102-0.001-0.222-0.002-0.343-0.002-17.507 0-31.721 14.096-31.913 31.557v315.581c0.192 17.479 14.406 31.575 31.913 31.575 0.121 0 0.241-0.001 0.362-0.002h-0.018c0.102 0.001 0.222 0.002 0.343 0.002 17.507 0 31.721-14.096 31.913-31.557v-315.751c-0.287-17.405-14.464-31.405-31.911-31.405-0.121 0-0.243 0.001-0.364 0.002h0.018z" />
<glyph unicode="&#xe947;" glyph-name="document-info" horiz-adv-x="826" d="M405.959-4.608h-335.189c-6.284 0-11.378 5.094-11.378 11.378v882.517c0 6.284 5.094 11.378 11.378 11.378v0h408.292v-172.032c0.065-16.383 13.361-29.639 29.753-29.639 0 0 0 0 0 0h154.908v-292.409c22.539-5.483 42.326-13.154 60.757-23.025l-1.365 0.668v357.148l-201.33 218.738h-451.015c-39.028-0.065-70.648-31.685-70.713-70.707v-882.523c0.032-39.032 31.633-70.673 70.647-70.77h405.741c-27.491 15.922-50.813 35.673-70.149 58.864l-0.336 0.414zM538.51 854.414l88.235-95.915h-88.235zM355.556 219.989c-4.534-17.194-7.332-37.019-7.733-57.431l-0.004-0.254h-175.787c-15.929 0-28.843 12.913-28.843 28.843s12.913 28.843 28.843 28.843v0zM143.246 321.138c0 15.929 12.913 28.843 28.843 28.843v0h262.884c-18.831-16.586-34.995-35.573-48.185-56.615l-0.626-1.070h-214.13c-15.905 0.032-28.786 12.933-28.786 28.843 0 0 0 0 0 0v0zM559.787 450.844c-0.032-15.905-12.933-28.786-28.843-28.786 0 0 0 0 0 0h-358.4c-15.929 0-28.843 12.913-28.843 28.843s12.913 28.843 28.843 28.843h358.4c0 0 0 0 0 0 15.929 0 28.843-12.913 28.843-28.843 0-0.020 0-0.040 0-0.060v0.003zM559.787 585.5c-0.032-15.916-12.926-28.81-28.84-28.843h-358.858c-15.929 0-28.843 12.913-28.843 28.843s12.913 28.843 28.843 28.843h358.855c0.051 0 0.111 0.001 0.171 0.001 15.929 0 28.843-12.913 28.843-28.843 0 0 0 0 0-0.001v0zM603.477 379.733c-122.534 0-221.867-99.333-221.867-221.867s99.333-221.867 221.867-221.867c122.534 0 221.867 99.333 221.867 221.867v0c0 0.034 0 0.074 0 0.114 0 122.474-99.236 221.769-221.687 221.867h-0.009zM572.188 324.608c7.99 8.046 19.058 13.027 31.289 13.027s23.299-4.981 31.286-13.025l0.003-0.003c7.939-7.764 12.862-18.585 12.862-30.555 0-0.238-0.002-0.476-0.006-0.713v0.036c0.004-0.206 0.006-0.45 0.006-0.694 0-11.951-4.973-22.74-12.962-30.411l-0.014-0.014c-7.794-7.907-18.623-12.806-30.595-12.806-0.244 0-0.488 0.002-0.731 0.006h0.037c-24.276 0.097-43.918 19.799-43.918 44.089 0 12.118 4.889 23.095 12.802 31.064l-0.003-0.003zM675.442-3.755h-144.043v10.24c0.457-0.021 0.993-0.034 1.531-0.034 9.652 0 18.387 3.928 24.693 10.272l0.002 0.002c3.869 7.998 6.13 17.395 6.13 27.319 0 2.642-0.16 5.246-0.471 7.804l0.030-0.307v105.074c0.256 2.144 0.402 4.626 0.402 7.143 0 10.556-2.567 20.513-7.111 29.28l0.167-0.355c-6.212 5.606-14.482 9.036-23.552 9.036-0.64 0-1.276-0.017-1.908-0.051l0.088 0.004v10.581h111.844v-160.711c-0.255-2.14-0.4-4.619-0.4-7.132 0-10.56 2.566-20.52 7.11-29.291l-0.167 0.355c6.267-5.611 14.589-9.042 23.712-9.042 0.684 0 1.364 0.019 2.039 0.057l-0.094-0.004z" />
<glyph unicode="&#xe948;" glyph-name="setting-refresh" horiz-adv-x="1285" d="M1274.465 487.632l-130.685-130.74c-6.569-6.559-15.638-10.615-25.655-10.615s-19.086 4.056-25.656 10.616v0l-130.685 130.74c-6.566 6.566-10.627 15.636-10.627 25.655 0 20.038 16.244 36.282 36.282 36.282 10.019 0 19.090-4.061 25.655-10.627l68.912-68.968-2.269 22.583c-23.217 222.751-209.965 394.918-436.924 394.918-161.823 0-303.203-87.525-379.383-217.819l-1.123-2.078c-6.376-10.971-18.074-18.229-31.467-18.229-20.033 0-36.274 16.24-36.274 36.274 0 6.64 1.784 12.864 4.9 18.218l-0.093-0.173c89.977 154.317 254.704 256.374 443.269 256.374 268.871 0 489.278-207.496 509.827-471.092l0.11-1.761 1.328-17.491 69.245 69.3c6.566 6.566 15.636 10.627 25.655 10.627 20.038 0 36.282-16.244 36.282-36.282 0-10.019-4.061-19.090-10.627-25.655v0zM1085.994 192.166c-90.020-154.192-254.689-256.148-443.171-256.148-268.841 0-489.235 207.428-509.868 470.971l-0.111 1.767-1.328 17.546-69.521-69.355c-6.654-7.186-16.138-11.669-26.67-11.669-20.054 0-36.31 16.257-36.31 36.31 0 10.531 4.483 20.015 11.646 26.648l0.024 0.022 130.685 130.685c6.569 6.559 15.638 10.615 25.655 10.615s19.086-4.056 25.656-10.616v0l130.685-130.685c5.975-6.452 9.641-15.119 9.641-24.641 0-20.054-16.257-36.31-36.31-36.31-9.522 0-18.189 3.666-24.665 9.663l0.024-0.022-68.857 68.912 2.269-22.583c23.376-222.628 210.073-394.643 436.946-394.643 161.833 0 303.223 87.525 379.416 217.821l1.123 2.078c6.394 10.892 18.049 18.088 31.384 18.088 20.032 0 36.271-16.239 36.271-36.271 0-6.697-1.815-12.969-4.979-18.353l0.093 0.17zM857.78 419.549c1.302 8.524 2.046 18.359 2.046 28.368s-0.744 19.843-2.179 29.452l0.133-1.084 60.886 47.824c3.3 2.7 5.389 6.773 5.389 11.334 0 2.651-0.706 5.136-1.94 7.28l0.038-0.071-57.898 100.186c-2.577 4.327-7.23 7.18-12.55 7.18-1.835 0-3.59-0.339-5.207-0.959l0.1 0.034-71.957-28.949c-14.137 11.057-30.279 20.588-47.596 27.876l-1.39 0.519-11.070 76.772c-0.96 6.976-6.882 12.291-14.045 12.291-0.102 0-0.205-0.001-0.306-0.003h-115.448c-0.042 0-0.091 0.001-0.141 0.001-7.123 0-13.019-5.256-14.020-12.101l-0.009-0.077-11.070-76.772c-18.701-7.953-34.829-17.472-49.506-28.781l0.52 0.385-71.957 28.949c-1.569 0.654-3.391 1.034-5.303 1.034-5.29 0-9.901-2.91-12.318-7.218l-0.037-0.071-57.898-100.186c-1.257-2.084-2.001-4.6-2.001-7.29 0-4.557 2.134-8.615 5.457-11.23l0.031-0.023 60.886-47.824c-1.307-8.533-2.054-18.377-2.054-28.395s0.747-19.862 2.188-29.479l-0.133 1.084-61.274-47.879c-3.3-2.7-5.389-6.773-5.389-11.334 0-2.651 0.706-5.136 1.94-7.28l-0.038 0.071 57.898-100.186c2.577-4.327 7.23-7.18 12.55-7.18 1.835 0 3.59 0.339 5.207 0.959l-0.1-0.034 71.957 28.949c14.122-11.047 30.245-20.576 47.539-27.874l1.392-0.521 11.070-76.772c0.985-6.918 6.869-12.179 13.981-12.179 0.066 0 0.133 0 0.199 0.001h115.84c0.056-0.001 0.122-0.001 0.189-0.001 7.112 0 12.996 5.261 13.972 12.103l0.009 0.075 11.070 76.772c18.701 7.956 34.829 17.474 49.507 28.781l-0.522-0.386 71.957-28.949c1.569-0.654 3.391-1.034 5.303-1.034 5.29 0 9.901 2.91 12.318 7.218l0.037 0.071 57.898 100.186c1.207 2.080 1.919 4.577 1.919 7.24 0 4.544-2.074 8.603-5.326 11.283l-0.025 0.020-60.886 47.824zM642.574 346.541c-55.973 0-101.348 45.375-101.348 101.348s45.375 101.348 101.348 101.348c55.973 0 101.348-45.375 101.348-101.348v0c0-55.973-45.375-101.348-101.348-101.348v0z" />
<glyph unicode="&#xe949;" glyph-name="import" d="M32 384c-17.673 0-32-14.327-32-32v0-64c0-17.673 14.327-32 32-32v0h224v128zM1009.984 750.016l-195.776 195.968c-8.672 8.66-20.647 14.016-33.872 14.016-0.039 0-0.079 0-0.118 0h-12.218v-256h256v12.224c-0.015 13.197-5.368 25.142-14.016 33.792v0zM704 688v272h-400c-0.038 0-0.083 0-0.128 0-26.439 0-47.872-21.433-47.872-47.872 0-0.045 0-0.090 0-0.135v0.007-528h256v130.368c0 0.036 0 0.079 0 0.122 0 17.673 14.327 32 32 32 8.915 0 16.978-3.645 22.781-9.527l0.003-0.004 191.168-193.024c6.117-6.154 9.897-14.635 9.897-24s-3.781-17.846-9.899-24.002l-191.358-192.766c-5.787-5.77-13.773-9.337-22.592-9.337-17.671 0-31.996 14.323-32 31.993v0 130.176h-256v-272c0-0.038 0-0.083 0-0.128 0-26.439 21.433-47.872 47.872-47.872 0.045 0 0.090 0 0.135 0h671.993c0.038 0 0.083 0 0.128 0 26.439 0 47.872 21.433 47.872 47.872 0 0.045 0 0.090 0 0.135v-0.007 656h-272c-26.48 0.073-47.927 21.52-48 47.993v0.007z" />
<glyph unicode="&#xe94a;" glyph-name="save" d="M1026.048 650.752v-595.968c0-65.536-53.248-118.784-118.784-118.784-178.176 0-610.304 0-788.48 0-65.536 0-118.784 53.248-118.784 116.736 0 178.176 0 610.304 0 788.48 0 65.536 53.248 118.784 118.784 118.784 153.6 0 491.52 0 595.968 0 32.768 0 61.44-12.288 83.968-34.816 45.056-45.056 145.408-145.408 190.464-190.464 22.528-22.528 34.816-53.248 34.816-83.968zM157.696 882.176h-38.912c-22.528 0-38.912-18.432-38.912-38.912 0-178.176 0-610.304 0-788.48 0-22.528 18.432-38.912 38.912-38.912h118.784v354.304c0 30.72 12.288 61.44 34.816 83.968s53.248 34.816 83.968 34.816c88.064 0 227.328 0 315.392 0 30.72 0 61.44-12.288 83.968-34.816s34.816-53.248 34.816-83.968v-354.304h118.784c22.528 0 38.912 18.432 38.912 38.912v595.968c0 10.24-4.096 20.48-12.288 28.672-45.056 45.056-145.408 145.408-190.464 190.464-8.192 8.192-16.384 12.288-28.672 12.288h-65.536v-118.784c0-30.72-12.288-61.44-34.816-83.968s-53.248-34.816-83.968-34.816c-73.728 0-182.272 0-256 0-30.72 0-61.44 12.288-83.968 34.816s-34.816 53.248-34.816 83.968v118.784zM708.608 13.824v356.352c0 10.24-4.096 20.48-12.288 28.672s-18.432 12.288-28.672 12.288c-88.064 0-227.328 0-315.392 0-10.24 0-20.48-4.096-28.672-12.288s-12.288-18.432-12.288-28.672v-354.304h397.312zM235.52 882.176v-118.784c0-10.24 4.096-20.48 12.288-28.672s18.432-12.288 28.672-12.288c73.728 0 182.272 0 256 0 10.24 0 20.48 4.096 28.672 12.288s12.288 18.432 12.288 28.672v118.784h-337.92z" />
<glyph unicode="&#xe94b;" glyph-name="security" horiz-adv-x="838" d="M418.93 960l-418.93-186.197v-279.268c-0.002-0.569-0.003-1.243-0.003-1.918 0-262.797 175.007-484.719 414.835-555.579l4.098-1.038c243.926 71.898 418.933 293.82 418.933 556.617 0 0.674-0.001 1.348-0.003 2.022v-0.104 279.268zM418.93 448.455h325.803c-20.928-192.563-148.861-350.713-322.353-415.022l-3.449-1.12v415.687h-325.86v265.33l325.803 144.782z" />
<glyph unicode="&#xe94c;" glyph-name="edit-bold" horiz-adv-x="1152" d="M805.376 794.048l180.224-180.736c3.511-3.538 5.68-8.412 5.68-13.792s-2.17-10.254-5.682-13.793l-436.671-436.863-185.664-20.416c-1.374-0.172-2.964-0.27-4.577-0.27-21.491 0-38.912 17.421-38.912 38.912 0 1.47 0.082 2.922 0.24 4.35l-0.016-0.176 20.608 185.6 437.12 437.184c3.542 3.53 8.428 5.712 13.824 5.712s10.282-2.182 13.825-5.713l-0.001 0.001zM1129.408 839.872l-97.6 97.344c-14.143 14.092-33.654 22.805-55.2 22.805s-41.057-8.713-55.202-22.808l-70.846-70.846c-3.511-3.538-5.68-8.412-5.68-13.792s2.17-10.254 5.682-13.793l180.415-180.415c3.538-3.511 8.412-5.68 13.792-5.68s10.254 2.17 13.793 5.682l70.783 70.783c14.092 14.143 22.805 33.654 22.805 55.2s-8.713 41.057-22.808 55.202l0.002-0.002zM768 267.648v-203.648h-640v640.448h459.712c0.142-0.003 0.31-0.005 0.478-0.005 6.382 0 12.196 2.433 16.565 6.422l-0.019-0.017 80 80c4.739 4.397 7.695 10.659 7.695 17.611 0 13.255-10.745 24-24 24-0.253 0-0.505-0.004-0.755-0.012l0.037 0.001h-571.712c-53.019 0-96-42.981-96-96v0-704c0-53.019 42.981-96 96-96v0h704c53.019 0 96 42.981 96 96v0 315.2c-0.027 13.27-10.79 24.017-24.064 24.017-6.617 0-12.611-2.671-16.961-6.994l-79.999-79.999c-4.285-4.394-6.94-10.395-6.976-17.017v-0.007z" />
<glyph unicode="&#xe94d;" glyph-name="stats" horiz-adv-x="939" d="M277.333-64h128c11.769 0.032 21.301 9.564 21.333 21.33v981.336c-0.032 11.769-9.564 21.301-21.33 21.333h-128.003c-11.769-0.032-21.301-9.564-21.333-21.33v-981.336c0.032-11.769 9.564-21.301 21.33-21.333h0.003zM21.333-64h128c11.769 0.032 21.301 9.564 21.333 21.33v384.003c-0.032 11.769-9.564 21.301-21.33 21.333h-128.003c-11.769-0.032-21.301-9.564-21.333-21.33v-384.003c0.032-11.769 9.564-21.301 21.33-21.333h0.003zM533.333-64h127.488c0.034 0 0.074 0 0.114 0 11.876 0 21.504 9.628 21.504 21.504 0 0.040 0 0.080 0 0.12v-0.006 554.098c0 0.034 0 0.074 0 0.114 0 11.876-9.628 21.504-21.504 21.504-0.040 0-0.080 0-0.12 0h-127.482c-0.034 0-0.074 0-0.114 0-11.876 0-21.504-9.628-21.504-21.504 0-0.040 0-0.080 0-0.12v0.006-554.098c0-0.034 0-0.074 0-0.114 0-11.876 9.628-21.504 21.504-21.504 0.040 0 0.080 0 0.12 0h-0.006zM768 767.716v-810.098c0-0.034 0-0.074 0-0.114 0-11.876 9.628-21.504 21.504-21.504 0.040 0 0.080 0 0.12 0h127.71c0.034 0 0.074 0 0.114 0 11.876 0 21.504 9.628 21.504 21.504 0 0.040 0 0.080 0 0.12v-0.006 810.098c0 0.034 0 0.074 0 0.114 0 11.876-9.628 21.504-21.504 21.504-0.040 0-0.080 0-0.12 0h-127.71c-0.034 0-0.074 0-0.114 0-11.876 0-21.504-9.628-21.504-21.504 0-0.040 0-0.080 0-0.12v0.006z" />
<glyph unicode="&#xe94e;" glyph-name="pointage" horiz-adv-x="776" d="M690.916-64l85.333 85.333-206.507 206.507-85.333-85.333zM115.655 687.502h211.968v-338.489l-327.623-327.623 85.333-85.333 363.349 363.349v388.096h212.082l-272.498 272.498z" />
<glyph unicode="&#xe94f;" glyph-name="location" horiz-adv-x="768" d="M344.519-43.349c-290.588 421.262-344.519 464.498-344.519 619.349 0 212.077 171.923 384 384 384s384-171.923 384-384v0c0-154.852-53.931-198.087-344.519-619.349-8.782-12.57-23.183-20.69-39.481-20.69s-30.698 8.12-39.378 20.534l-0.103 0.155zM384 416.028c88.325 0.032 159.915 71.642 159.915 159.972 0 88.35-71.622 159.972-159.972 159.972s-159.972-71.622-159.972-159.972v0c0-88.35 71.622-159.972 159.972-159.972 0.020 0 0.040 0 0.060 0h-0.003z" />
<glyph unicode="&#xe950;" glyph-name="user" horiz-adv-x="878" d="M438.841 448c141.385 0 256 114.615 256 256s-114.615 256-256 256c-141.385 0-256-114.615-256-256v0c0-141.385 114.615-256 256-256v0zM614.4 374.841h-18.944c-45.632-23.025-99.464-36.508-156.444-36.508s-110.813 13.484-158.478 37.434l2.034-0.926h-19.228c-145.405-0.032-263.274-117.882-263.339-263.276v-65.826c0-60.607 49.132-109.739 109.739-109.739v0h658.261c60.607 0 109.739 49.132 109.739 109.739v0 65.82c-0.065 145.4-117.934 263.249-263.335 263.282h-0.003z" />
</font>
</defs>
</svg>
